<svg xmlns="http://www.w3.org/2000/svg" width="100" height="99.901" viewBox="0 0 100 99.901"><defs><style>.a{fill:#fff;}</style></defs><path class="a" d="M96.887,8.3,91.833,3.25a10.88,10.88,0,0,0-15.033,0L63.229,16.82a10.632,10.632,0,0,0,0,15.033l.034.034L61.814,33.34l-.038-.038a10.891,10.891,0,0,0-15.033,0L33.172,46.873a10.643,10.643,0,0,0,0,15.035l.038.036-1.46,1.46-.038-.038a10.88,10.88,0,0,0-15.033,0L3.113,76.934a10.632,10.632,0,0,0,0,15.034l5.051,5.055a10.628,10.628,0,0,0,15.033,0l13.57-13.568a10.63,10.63,0,0,0,0-15.038l-.028-.029L38.2,66.93l.03.033a10.628,10.628,0,0,0,15.033,0L66.83,53.394a10.625,10.625,0,0,0,0-15.035l-.034-.033,1.453-1.453.034.033a10.628,10.628,0,0,0,15.033,0l13.57-13.568a10.632,10.632,0,0,0,0-15.033ZM31.782,73.4a3.579,3.579,0,0,1,0,5.066L18.212,92.037a3.7,3.7,0,0,1-5.062,0L8.1,86.982a3.585,3.585,0,0,1,0-5.062L21.665,68.352a3.577,3.577,0,0,1,5.062,0l.038.038L25.16,70a3.526,3.526,0,1,0,4.986,4.986l1.608-1.608ZM61.845,43.347a3.575,3.575,0,0,1,0,5.062L48.275,61.977a3.7,3.7,0,0,1-5.062,0l-.031-.033,1.6-1.6A3.525,3.525,0,1,0,39.8,55.355l-1.6,1.6-.038-.036a3.587,3.587,0,0,1,0-5.063l13.57-13.567a3.582,3.582,0,0,1,5.062,0l.035.037-1.608,1.609A3.526,3.526,0,1,0,60.2,44.922l1.608-1.609ZM91.9,18.352,78.331,31.92a3.663,3.663,0,0,1-5.062,0l-.034-.033,1.608-1.606A3.526,3.526,0,1,0,69.857,25.3L68.249,26.9l-.034-.035a3.584,3.584,0,0,1,0-5.062l13.57-13.57a3.579,3.579,0,0,1,5.062,0L91.9,13.292a3.581,3.581,0,0,1,0,5.06Z" transform="translate(0 -0.236)"/></svg>