<svg xmlns="http://www.w3.org/2000/svg" xmlns:xlink="http://www.w3.org/1999/xlink" width="233.603" height="320.081" viewBox="0 0 233.603 320.081"><defs><style>.a{fill:#fff;}.b{fill:#4bcdff;}.c{filter:url(#c);}.d{filter:url(#a);}</style><filter id="a" x="78.87" y="23.262" width="75.85" height="75.85" filterUnits="userSpaceOnUse"><feOffset dx="15" dy="15" input="SourceAlpha"/><feGaussianBlur stdDeviation="7.5" result="b"/><feFlood flood-color="#4bcdff" flood-opacity="0.302"/><feComposite operator="in" in2="b"/><feComposite in="SourceGraphic"/></filter><filter id="c" x="0" y="5.972" width="233.603" height="314.11" filterUnits="userSpaceOnUse"><feOffset dx="15" dy="15" input="SourceAlpha"/><feGaussianBlur stdDeviation="7.5" result="d"/><feFlood flood-color="#4bcdff" flood-opacity="0.302"/><feComposite operator="in" in2="d"/><feComposite in="SourceGraphic"/></filter></defs><g transform="translate(-220.5 -4158)"><g transform="translate(228 4171.472)"><g class="d" transform="matrix(1, 0, 0, 1, -7.5, -13.47)"><path class="a" d="M216.543,42.378A15.425,15.425,0,1,0,201.118,57.8,15.443,15.443,0,0,0,216.543,42.378Zm-21.227,0a5.8,5.8,0,1,1,5.8,5.8A5.809,5.809,0,0,1,195.316,42.378Z" transform="translate(-99.32 3.81)"/></g><g class="c" transform="matrix(1, 0, 0, 1, -7.5, -13.47)"><path class="a" d="M251.331,215.742l-.956-51.6a4.811,4.811,0,0,0-7.828-3.659L203.1,192.237a4.811,4.811,0,0,0,2.485,8.529l8.984,1-2.454,3.3a28.358,28.358,0,0,1-22.9,11.518,18.419,18.419,0,0,1-18.026-15.464,110.847,110.847,0,0,1-1.635-18.94V108.42h15.4a12.509,12.509,0,0,0,0-25.019h-15.4V62.939a32.715,32.715,0,1,0-25.018,0V83.4h-15.4a12.509,12.509,0,0,0,0,25.019h15.4v73.76a110.81,110.81,0,0,1-1.635,18.939,18.433,18.433,0,0,1-18.076,15.464,28.334,28.334,0,0,1-22.854-11.52l-2.455-3.3,8.986-1a4.811,4.811,0,0,0,2.486-8.529L71.539,160.482a4.811,4.811,0,0,0-7.828,3.659L62.75,216.1a4.811,4.811,0,0,0,8.211,3.492l6.827-6.823,6.17,12.339a42.333,42.333,0,0,0,36.813,23.43,32.831,32.831,0,0,1,21.25,8.558L153.8,267.851a4.812,4.812,0,0,0,6.489,0l11.777-10.757a32.8,32.8,0,0,1,21.25-8.559,42.411,42.411,0,0,0,36.814-23.43l6.17-12.339,6.827,6.823a4.82,4.82,0,0,0,8.225-3.4C251.352,216.037,251.345,215.888,251.331,215.742ZM133.95,32.716a23.093,23.093,0,1,1,23.093,23.093A23.119,23.119,0,0,1,133.95,32.716ZM154.157,65.3c.952.083,1.913.135,2.886.135s1.935-.051,2.887-.135V83.4h-5.774Zm84.225,135.946a4.811,4.811,0,0,0-7.7,1.252L221.522,220.8a32.784,32.784,0,0,1-28.462,18.114,42.426,42.426,0,0,0-27.483,11.072l-8.533,7.794-8.533-7.794a42.446,42.446,0,0,0-27.483-11.072A32.73,32.73,0,0,1,92.565,220.8l-9.154-18.309a4.811,4.811,0,0,0-7.7-1.252l-3.115,3.113.56-30.222,22.791,18.347-5.826.647a4.811,4.811,0,0,0-3.329,7.654l7.459,10.025a37.875,37.875,0,0,0,30.547,15.4h.079A28.025,28.025,0,0,0,152.38,202.77a120.5,120.5,0,0,0,1.778-20.589V103.609a4.811,4.811,0,0,0-4.811-4.811H129.139a2.887,2.887,0,0,1,0-5.774H184.95a2.887,2.887,0,1,1,0,5.774H164.743a4.811,4.811,0,0,0-4.811,4.811v78.572a120.526,120.526,0,0,0,1.778,20.59,28.023,28.023,0,0,0,27.506,23.437h.08a37.876,37.876,0,0,0,30.545-15.4l7.454-10.027a4.812,4.812,0,0,0-3.33-7.653l-5.82-.647,22.792-18.348.56,30.222Z" transform="translate(-55.25 13.47)"/></g></g><rect class="b" width="129.584" height="209.131" rx="20" transform="translate(257.509 4158)"/><g transform="translate(228 4171.472)"><path class="a" d="M216.543,42.378A15.425,15.425,0,1,0,201.118,57.8,15.443,15.443,0,0,0,216.543,42.378Zm-21.227,0a5.8,5.8,0,1,1,5.8,5.8A5.809,5.809,0,0,1,195.316,42.378Z" transform="translate(-106.824 -9.662)"/><path class="a" d="M251.331,215.742l-.956-51.6a4.811,4.811,0,0,0-7.828-3.659L203.1,192.237a4.811,4.811,0,0,0,2.485,8.529l8.984,1-2.454,3.3a28.358,28.358,0,0,1-22.9,11.518,18.419,18.419,0,0,1-18.026-15.464,110.847,110.847,0,0,1-1.635-18.94V108.42h15.4a12.509,12.509,0,0,0,0-25.019h-15.4V62.939a32.715,32.715,0,1,0-25.018,0V83.4h-15.4a12.509,12.509,0,0,0,0,25.019h15.4v73.76a110.81,110.81,0,0,1-1.635,18.939,18.433,18.433,0,0,1-18.076,15.464,28.334,28.334,0,0,1-22.854-11.52l-2.455-3.3,8.986-1a4.811,4.811,0,0,0,2.486-8.529L71.539,160.482a4.811,4.811,0,0,0-7.828,3.659L62.75,216.1a4.811,4.811,0,0,0,8.211,3.492l6.827-6.823,6.17,12.339a42.333,42.333,0,0,0,36.813,23.43,32.831,32.831,0,0,1,21.25,8.558L153.8,267.851a4.812,4.812,0,0,0,6.489,0l11.777-10.757a32.8,32.8,0,0,1,21.25-8.559,42.411,42.411,0,0,0,36.814-23.43l6.17-12.339,6.827,6.823a4.82,4.82,0,0,0,8.225-3.4C251.352,216.037,251.345,215.888,251.331,215.742ZM133.95,32.716a23.093,23.093,0,1,1,23.093,23.093A23.119,23.119,0,0,1,133.95,32.716ZM154.157,65.3c.952.083,1.913.135,2.886.135s1.935-.051,2.887-.135V83.4h-5.774Zm84.225,135.946a4.811,4.811,0,0,0-7.7,1.252L221.522,220.8a32.784,32.784,0,0,1-28.462,18.114,42.426,42.426,0,0,0-27.483,11.072l-8.533,7.794-8.533-7.794a42.446,42.446,0,0,0-27.483-11.072A32.73,32.73,0,0,1,92.565,220.8l-9.154-18.309a4.811,4.811,0,0,0-7.7-1.252l-3.115,3.113.56-30.222,22.791,18.347-5.826.647a4.811,4.811,0,0,0-3.329,7.654l7.459,10.025a37.875,37.875,0,0,0,30.547,15.4h.079A28.025,28.025,0,0,0,152.38,202.77a120.5,120.5,0,0,0,1.778-20.589V103.609a4.811,4.811,0,0,0-4.811-4.811H129.139a2.887,2.887,0,0,1,0-5.774H184.95a2.887,2.887,0,1,1,0,5.774H164.743a4.811,4.811,0,0,0-4.811,4.811v78.572a120.526,120.526,0,0,0,1.778,20.59,28.023,28.023,0,0,0,27.506,23.437h.08a37.876,37.876,0,0,0,30.545-15.4l7.454-10.027a4.812,4.812,0,0,0-3.33-7.653l-5.82-.647,22.792-18.348.56,30.222Z" transform="translate(-62.749 0)"/></g><path class="b" d="M94.295,109.691a4.8,4.8,0,0,1-3.244-1.259L79.272,97.674a32.838,32.838,0,0,0-21.25-8.558,42.33,42.33,0,0,1-36.813-23.43l-6.17-12.339L8.213,60.17A4.811,4.811,0,0,1,0,56.678L.963,4.722A4.811,4.811,0,0,1,8.79,1.064L29.568,17.79A20.08,20.08,0,0,0,49.51,36.24h.511a4.812,4.812,0,0,1-4.269,5.108l-8.986,1,2.454,3.3A28.339,28.339,0,0,0,62.075,57.164,18.451,18.451,0,0,0,80.151,41.7c.313-1.8.585-3.636.809-5.46h9.689c-.269,2.382-.612,4.774-1.018,7.111A28.022,28.022,0,0,1,62.125,66.788h-.079A37.873,37.873,0,0,1,31.5,51.388l-7.46-10.025a4.811,4.811,0,0,1,3.329-7.654l5.827-.647L10.4,14.715,9.842,44.937l3.115-3.113a4.812,4.812,0,0,1,7.7,1.252l9.154,18.309A32.73,32.73,0,0,0,58.28,79.5,42.441,42.441,0,0,1,85.763,90.571l8.532,7.794,8.534-7.794A42.423,42.423,0,0,1,130.311,79.5a32.784,32.784,0,0,0,28.463-18.114l9.155-18.309a4.811,4.811,0,0,1,7.7-1.252l3.115,3.114-.56-30.222L155.4,33.063l5.82.646a4.812,4.812,0,0,1,3.33,7.653l-7.454,10.027a37.873,37.873,0,0,1-30.545,15.4h-.081A28.022,28.022,0,0,1,98.96,43.351c-.407-2.343-.75-4.735-1.018-7.111h9.688c.223,1.818.495,3.654.809,5.46a18.419,18.419,0,0,0,18.026,15.465,28.382,28.382,0,0,0,22.9-11.518l2.454-3.3-8.984-1a4.812,4.812,0,0,1-4.269-5.107h.525a20.077,20.077,0,0,0,19.942-18.463L179.8,1.064A4.829,4.829,0,0,1,182.816,0a4.812,4.812,0,0,1,4.81,4.722l.956,51.6c.014.148.021.3.021.443a4.811,4.811,0,0,1-4.757,4.811h-.032a4.824,4.824,0,0,1-3.436-1.409l-6.827-6.823-6.17,12.34a42.41,42.41,0,0,1-36.814,23.43,32.805,32.805,0,0,0-21.25,8.559L97.54,108.432A4.8,4.8,0,0,1,94.295,109.691Z" transform="translate(227.999 4330.89)"/><path class="b" d="M94.295,109.691a4.8,4.8,0,0,1-3.244-1.259L79.272,97.674a32.838,32.838,0,0,0-21.25-8.558,42.33,42.33,0,0,1-36.813-23.43l-6.17-12.339L8.213,60.17A4.811,4.811,0,0,1,0,56.678L.963,4.722A4.811,4.811,0,0,1,8.79,1.064L29.568,17.79A20.08,20.08,0,0,0,49.51,36.24h.511a4.812,4.812,0,0,1-4.269,5.108l-8.986,1,2.454,3.3A28.339,28.339,0,0,0,62.075,57.164,18.451,18.451,0,0,0,80.151,41.7c.313-1.8.585-3.636.809-5.46h9.689c-.269,2.382-.612,4.774-1.018,7.111A28.022,28.022,0,0,1,62.125,66.788h-.079A37.873,37.873,0,0,1,31.5,51.388l-7.46-10.025a4.811,4.811,0,0,1,3.329-7.654l5.827-.647L10.4,14.715,9.842,44.937l3.115-3.113a4.812,4.812,0,0,1,7.7,1.252l9.154,18.309A32.73,32.73,0,0,0,58.28,79.5,42.441,42.441,0,0,1,85.763,90.571l8.532,7.794,8.534-7.794A42.423,42.423,0,0,1,130.311,79.5a32.784,32.784,0,0,0,28.463-18.114l9.155-18.309a4.811,4.811,0,0,1,7.7-1.252l3.115,3.114-.56-30.222L155.4,33.063l5.82.646a4.812,4.812,0,0,1,3.33,7.653l-7.454,10.027a37.873,37.873,0,0,1-30.545,15.4h-.081A28.022,28.022,0,0,1,98.96,43.351c-.407-2.343-.75-4.735-1.018-7.111h9.688c.223,1.818.495,3.654.809,5.46a18.419,18.419,0,0,0,18.026,15.465,28.382,28.382,0,0,0,22.9-11.518l2.454-3.3-8.984-1a4.812,4.812,0,0,1-4.269-5.107h.525a20.077,20.077,0,0,0,19.942-18.463L179.8,1.064A4.829,4.829,0,0,1,182.816,0a4.812,4.812,0,0,1,4.81,4.722l.956,51.6c.014.148.021.3.021.443a4.811,4.811,0,0,1-4.757,4.811h-.032a4.824,4.824,0,0,1-3.436-1.409l-6.827-6.823-6.17,12.34a42.41,42.41,0,0,1-36.814,23.43,32.805,32.805,0,0,0-21.25,8.559L97.54,108.432A4.8,4.8,0,0,1,94.295,109.691Z" transform="translate(227.999 4330.89)"/></g></svg>