<?xml version="1.0" encoding="iso-8859-1"?>
<!-- Generator: Adobe Illustrator 18.0.0, SVG Export Plug-In . SVG Version: 6.00 Build 0)  -->
<!DOCTYPE svg PUBLIC "-//W3C//DTD SVG 1.1//EN" "http://www.w3.org/Graphics/SVG/1.1/DTD/svg11.dtd">
<svg version="1.1" id="Capa_1" xmlns="http://www.w3.org/2000/svg" xmlns:xlink="http://www.w3.org/1999/xlink" x="0px" y="0px"
	 viewBox="0 0 476 476" style="enable-background:new 0 0 476 476;" xml:space="preserve">
<path id="XMLID_167_" d="M461.184,38.641l-24.061-24.059c-19.111-19.128-52.448-19.128-71.559,0l-64.593,64.593
	c-9.556,9.555-14.816,22.258-14.816,35.778c0,13.522,5.261,26.225,14.816,35.781l0.163,0.162l-6.899,6.917l-0.18-0.18
	c-19.111-19.095-52.448-19.102-71.559,0.008l-64.595,64.585c-19.732,19.733-19.732,51.833,0,71.567l0.181,0.171l-6.949,6.95
	l-0.18-0.18c-19.111-19.128-52.448-19.128-71.559,0l-64.575,64.584C5.262,374.874,0,387.586,0,401.099
	c0,13.514,5.262,26.224,14.818,35.78l24.043,24.061c9.556,9.564,22.257,14.824,35.779,14.824c13.522,0,26.224-5.261,35.779-14.824
	l64.594-64.586c9.571-9.563,14.833-22.273,14.833-35.787c0-13.514-5.262-26.224-14.833-35.796l-0.131-0.139l6.934-6.934l0.145,0.156
	c9.557,9.563,22.258,14.825,35.78,14.825c13.521,0,26.225-5.262,35.779-14.825l64.592-64.586
	c9.557-9.555,14.834-22.265,14.834-35.787c0-13.522-5.277-26.232-14.834-35.778l-0.162-0.156l6.916-6.917l0.164,0.156
	c9.556,9.563,22.257,14.825,35.779,14.825c13.523,0,26.225-5.262,35.779-14.825l64.594-64.586
	C470.738,100.646,476,87.936,476,74.422C476,60.9,470.738,48.19,461.184,38.641z M151.28,348.511c3.181,3.181,5,7.573,5,12.056
	c0,4.483-1.819,8.875-5,12.056l-64.593,64.584c-6.359,6.343-17.734,6.343-24.094,0L38.55,413.146
	c-6.638-6.646-6.638-17.446,0-24.093l64.577-64.586c3.213-3.221,7.49-4.989,12.047-4.989c4.556,0,8.833,1.768,12.046,4.998
	l0.181,0.181l-7.638,7.637c-6.556,6.558-6.556,17.187,0,23.733c3.278,3.278,7.573,4.918,11.866,4.918
	c4.295,0,8.588-1.64,11.867-4.918l7.653-7.655L151.28,348.511z M294.382,205.443c3.213,3.213,4.998,7.491,4.998,12.039
	c0,4.557-1.785,8.835-4.998,12.056l-64.593,64.584c-6.36,6.343-17.734,6.343-24.094,0l-0.147-0.156l7.621-7.63
	c6.556-6.556,6.556-17.185,0-23.732c-6.556-6.556-17.176-6.556-23.731,0l-7.621,7.63l-0.182-0.173
	c-6.638-6.646-6.638-17.455,0-24.102l64.593-64.577c3.214-3.221,7.49-4.989,12.047-4.989c4.557,0,8.835,1.769,12.047,4.98
	l0.165,0.174l-7.655,7.661c-6.556,6.558-6.556,17.178,0,23.733c3.277,3.277,7.572,4.918,11.866,4.918
	c4.295,0,8.589-1.641,11.867-4.918l7.653-7.661L294.382,205.443z M437.45,86.469l-64.593,64.584c-6.424,6.441-17.669,6.441-24.094,0
	l-0.163-0.156l7.653-7.645c6.556-6.558,6.556-17.178,0-23.733c-6.556-6.556-17.176-6.556-23.733,0l-7.653,7.646L324.703,127
	c-3.213-3.212-4.981-7.49-4.981-12.047c0-4.557,1.768-8.833,4.981-12.047l64.594-64.593c3.179-3.17,7.571-4.989,12.046-4.989
	s8.868,1.819,12.047,4.989l24.061,24.069c3.212,3.213,4.983,7.49,4.983,12.039C442.434,78.97,440.662,83.248,437.45,86.469z"/>
<g>
</g>
<g>
</g>
<g>
</g>
<g>
</g>
<g>
</g>
<g>
</g>
<g>
</g>
<g>
</g>
<g>
</g>
<g>
</g>
<g>
</g>
<g>
</g>
<g>
</g>
<g>
</g>
<g>
</g>
</svg>
