<svg xmlns="http://www.w3.org/2000/svg" xmlns:xlink="http://www.w3.org/1999/xlink" width="318.65" height="318.65" viewBox="0 0 318.65 318.65"><defs><style>.a{fill:#4bcdff;}.b{filter:url(#a);}</style><filter id="a" x="0" y="0" width="318.65" height="318.65" filterUnits="userSpaceOnUse"><feOffset dx="20" dy="20" input="SourceAlpha"/><feGaussianBlur stdDeviation="7.5" result="b"/><feFlood flood-color="#4bcdff" flood-opacity="0.302"/><feComposite operator="in" in2="b"/><feComposite in="SourceGraphic"/></filter></defs><g class="b" transform="matrix(1, 0, 0, 1, 0, 0)"><path class="a" d="M187.962,15.823l-9.806-9.765c-7.789-7.763-21.376-7.763-29.165,0L122.665,32.275a20.48,20.48,0,0,0,0,29.043l.066.066-2.812,2.807-.073-.073c-7.789-7.75-21.376-7.753-29.165,0L64.355,90.334a20.5,20.5,0,0,0,0,29.047l.074.069L61.6,122.271l-.073-.073c-7.789-7.763-21.376-7.763-29.165,0L6.04,148.41a20.479,20.479,0,0,0,0,29.044l9.8,9.766a20.68,20.68,0,0,0,29.164,0l26.326-26.213a20.476,20.476,0,0,0,0-29.053l-.053-.056,2.826-2.814.059.063a20.679,20.679,0,0,0,29.165,0l26.325-26.213a20.466,20.466,0,0,0,0-29.046l-.066-.063,2.819-2.807.067.063a20.679,20.679,0,0,0,29.164,0l26.326-26.213a20.48,20.48,0,0,0,0-29.043ZM61.656,141.588a6.893,6.893,0,0,1,0,9.786L35.33,177.587a7.208,7.208,0,0,1-9.82,0l-9.8-9.765a6.905,6.905,0,0,1,0-9.778L42.031,131.83a6.96,6.96,0,0,1,9.819,0l.074.073-3.113,3.1a6.825,6.825,0,0,0,9.673,9.632l3.119-3.107Zm58.323-58.066a6.887,6.887,0,0,1,0,9.779L93.653,119.514a7.208,7.208,0,0,1-9.82,0l-.06-.063,3.106-3.1a6.789,6.789,0,0,0,0-9.632,6.857,6.857,0,0,0-9.672,0l-3.106,3.1-.074-.07a6.91,6.91,0,0,1,0-9.782l26.326-26.21a6.97,6.97,0,0,1,9.82,0l.067.071-3.12,3.109a6.825,6.825,0,0,0,9.673,9.632l3.119-3.109Zm58.309-48.287L151.963,61.447a7.128,7.128,0,0,1-9.82,0l-.066-.063,3.119-3.1a6.789,6.789,0,0,0,0-9.632,6.858,6.858,0,0,0-9.673,0l-3.119,3.1-.067-.067a6.9,6.9,0,0,1,0-9.779L158.663,15.69a6.965,6.965,0,0,1,9.819,0l9.806,9.769a6.9,6.9,0,0,1,0,9.776Z" transform="translate(139.14 2.33) rotate(45)"/></g></svg>