<svg xmlns="http://www.w3.org/2000/svg" width="88" height="87.913" viewBox="0 0 88 87.913"><defs><style>.a{fill:#4bcdff;}</style></defs><path class="a" d="M85.261,7.336,80.813,2.888a9.575,9.575,0,0,0-13.229,0L55.642,14.83a9.357,9.357,0,0,0,0,13.229l.03.03L54.4,29.368l-.033-.033a9.584,9.584,0,0,0-13.229,0L29.192,41.276a9.366,9.366,0,0,0,0,13.231l.033.032-1.285,1.285-.033-.033a9.575,9.575,0,0,0-13.229,0L2.74,67.73a9.356,9.356,0,0,0,0,13.23l4.445,4.448a9.353,9.353,0,0,0,13.229,0l11.942-11.94a9.354,9.354,0,0,0,0-13.234l-.024-.026,1.282-1.282.027.029a9.353,9.353,0,0,0,13.229,0l11.941-11.94a9.35,9.35,0,0,0,0-13.231l-.03-.029,1.279-1.279.03.029a9.352,9.352,0,0,0,13.229,0l11.942-11.94a9.356,9.356,0,0,0,0-13.229ZM27.968,64.623a3.149,3.149,0,0,1,0,4.458L16.026,81.021a3.26,3.26,0,0,1-4.454,0L7.127,76.572a3.155,3.155,0,0,1,0-4.454l11.939-11.94a3.148,3.148,0,0,1,4.454,0l.033.033-1.412,1.412a3.1,3.1,0,1,0,4.388,4.388L27.944,64.6Zm26.456-26.45a3.146,3.146,0,0,1,0,4.455L42.482,54.568a3.26,3.26,0,0,1-4.454,0L38,54.539l1.409-1.411a3.1,3.1,0,0,0-4.387-4.387l-1.409,1.411-.034-.032a3.157,3.157,0,0,1,0-4.456L45.521,33.725a3.152,3.152,0,0,1,4.454,0l.031.032-1.415,1.416a3.1,3.1,0,1,0,4.388,4.388l1.415-1.416Zm26.45-22L68.932,28.118a3.224,3.224,0,0,1-4.454,0l-.03-.029,1.415-1.413a3.1,3.1,0,0,0-4.388-4.388L60.059,23.7l-.03-.031a3.154,3.154,0,0,1,0-4.454L71.971,7.275a3.15,3.15,0,0,1,4.454,0l4.448,4.45a3.151,3.151,0,0,1,0,4.453Z" transform="translate(0 -0.236)"/></svg>