<svg xmlns="http://www.w3.org/2000/svg" width="70" height="100" viewBox="0 0 70 100"><defs><style>.a{fill:#fff;}</style></defs><g transform="translate(0)"><path class="a" d="M199.1,33.656a6.7,6.7,0,1,0-6.7,6.7A6.71,6.71,0,0,0,199.1,33.656Zm-9.224,0a2.521,2.521,0,1,1,2.521,2.521A2.524,2.524,0,0,1,189.874,33.656Z" transform="translate(-157.398 -19.44)"/><path class="a" d="M132.741,80.169l-.355-19.175a1.786,1.786,0,0,0-2.905-1.36l-14.64,11.8a1.788,1.788,0,0,0,.922,3.17l3.335.371-.911,1.227a10.521,10.521,0,0,1-8.5,4.28A6.839,6.839,0,0,1,103,74.735a41.238,41.238,0,0,1-.607-7.038V40.288H108.1a4.648,4.648,0,0,0,0-9.3h-5.714v-7.6a12.142,12.142,0,1,0-9.285,0v7.6H87.389a4.648,4.648,0,0,0,0,9.3H93.1V67.7a41.225,41.225,0,0,1-.607,7.038,6.844,6.844,0,0,1-6.709,5.746A10.512,10.512,0,0,1,77.305,76.2l-.911-1.226,3.335-.371a1.788,1.788,0,0,0,.923-3.17l-14.64-11.8a1.786,1.786,0,0,0-2.905,1.36L62.749,80.3A1.785,1.785,0,0,0,65.8,81.6l2.534-2.535,2.29,4.585a15.711,15.711,0,0,0,13.663,8.706,12.177,12.177,0,0,1,7.887,3.18l4.371,4a1.784,1.784,0,0,0,2.409,0l4.371-4a12.166,12.166,0,0,1,7.887-3.18,15.739,15.739,0,0,0,13.664-8.707l2.29-4.585L129.7,81.6a1.789,1.789,0,0,0,3.053-1.265C132.749,80.278,132.746,80.223,132.741,80.169ZM89.175,12.157a8.571,8.571,0,1,1,8.571,8.581A8.586,8.586,0,0,1,89.175,12.157Zm7.5,12.107c.353.031.71.05,1.071.05s.718-.019,1.072-.05v6.728H96.675Zm31.26,50.517a1.785,1.785,0,0,0-2.86.465l-3.4,6.8a12.167,12.167,0,0,1-10.564,6.731,15.736,15.736,0,0,0-10.2,4.114l-3.167,2.9-3.167-2.9a15.744,15.744,0,0,0-10.2-4.114,12.147,12.147,0,0,1-10.564-6.731l-3.4-6.8a1.785,1.785,0,0,0-2.86-.465L66.4,75.938l.208-11.23,8.459,6.818-2.162.241a1.788,1.788,0,0,0-1.235,2.844l2.769,3.725a14.052,14.052,0,0,0,11.338,5.723h.029a10.405,10.405,0,0,0,10.209-8.709,44.831,44.831,0,0,0,.66-7.651V38.5a1.787,1.787,0,0,0-1.786-1.788h-7.5a1.073,1.073,0,0,1,0-2.145H108.1a1.073,1.073,0,0,1,0,2.145h-7.5A1.787,1.787,0,0,0,98.818,38.5V67.7a44.839,44.839,0,0,0,.66,7.651,10.4,10.4,0,0,0,10.209,8.709h.03a14.052,14.052,0,0,0,11.337-5.722l2.767-3.726a1.788,1.788,0,0,0-1.236-2.844l-2.16-.24,8.459-6.818.208,11.23Z" transform="translate(-62.749 0)"/></g></svg>