<svg xmlns="http://www.w3.org/2000/svg" width="76" height="108.442" viewBox="0 0 76 108.442"><defs><style>.a{fill:#4bcdff;}</style></defs><g transform="translate(-62.749)"><path class="a" d="M198.125,33.169a6.216,6.216,0,1,0-6.216,6.216A6.223,6.223,0,0,0,198.125,33.169Zm-8.554,0a2.338,2.338,0,1,1,2.338,2.338A2.341,2.341,0,0,1,189.571,33.169Z" transform="translate(-91.163 -19.986)"/><path class="a" d="M138.741,86.937l-.385-20.793a1.939,1.939,0,0,0-3.154-1.475l-15.9,12.8a1.939,1.939,0,0,0,1,3.437l3.62.4-.989,1.33a11.427,11.427,0,0,1-9.229,4.641,7.422,7.422,0,0,1-7.264-6.232,44.669,44.669,0,0,1-.659-7.632V43.689h6.2a5.041,5.041,0,1,0,0-10.082h-6.2V25.362a13.183,13.183,0,1,0-10.081,0v8.245H89.5a5.041,5.041,0,0,0,0,10.082h6.2V73.412a44.652,44.652,0,0,1-.659,7.632,7.428,7.428,0,0,1-7.284,6.232,11.418,11.418,0,0,1-9.21-4.642l-.989-1.33,3.621-.4a1.939,1.939,0,0,0,1-3.437l-15.9-12.8a1.939,1.939,0,0,0-3.154,1.475L62.749,87.08a1.939,1.939,0,0,0,3.309,1.407l2.751-2.749L71.3,90.71a17.059,17.059,0,0,0,14.835,9.441,13.23,13.23,0,0,1,8.563,3.448l4.746,4.335a1.939,1.939,0,0,0,2.615,0L106.8,103.6a13.218,13.218,0,0,1,8.563-3.449A17.09,17.09,0,0,0,130.2,90.71l2.486-4.972,2.751,2.749a1.942,1.942,0,0,0,3.315-1.371C138.749,87.056,138.747,87,138.741,86.937Zm-47.3-73.754a9.306,9.306,0,1,1,9.306,9.306A9.316,9.316,0,0,1,91.441,13.183Zm8.143,13.129c.384.034.771.054,1.163.054s.78-.02,1.164-.054v7.3H99.583Zm33.94,54.782a1.939,1.939,0,0,0-3.1.5l-3.689,7.378a13.211,13.211,0,0,1-11.469,7.3,17.1,17.1,0,0,0-11.075,4.462l-3.439,3.141-3.438-3.141a17.1,17.1,0,0,0-11.075-4.462,13.189,13.189,0,0,1-11.47-7.3L71.075,81.6a1.939,1.939,0,0,0-3.1-.5l-1.255,1.255.226-12.178,9.184,7.393-2.348.261a1.939,1.939,0,0,0-1.341,3.084l3.006,4.04a15.262,15.262,0,0,0,12.309,6.206h.032a11.293,11.293,0,0,0,11.084-9.444,48.558,48.558,0,0,0,.716-8.3V41.751a1.939,1.939,0,0,0-1.939-1.939H89.5a1.163,1.163,0,1,1,0-2.327h22.49a1.163,1.163,0,1,1,0,2.327h-8.143a1.939,1.939,0,0,0-1.939,1.939V73.413a48.57,48.57,0,0,0,.716,8.3,11.292,11.292,0,0,0,11.084,9.444h.032a15.263,15.263,0,0,0,12.309-6.205l3-4.04a1.939,1.939,0,0,0-1.342-3.084l-2.345-.261,9.184-7.394.226,12.178Z" transform="translate(0 0)"/></g></svg>