<svg xmlns="http://www.w3.org/2000/svg" width="69.463" height="48.683" viewBox="0 0 69.463 48.683"><defs><style>.a{fill:#4bcdff;}</style></defs><g transform="translate(69.463 -62.749) rotate(90)"><path class="a" d="M193.656,30.935a3.982,3.982,0,1,0-3.982,3.982A3.986,3.986,0,0,0,193.656,30.935Zm-5.479,0a1.5,1.5,0,1,1,1.5,1.5A1.5,1.5,0,0,1,188.177,30.935Z" transform="translate(-102.586 -22.49)"/><path class="a" d="M111.426,55.688l-.247-13.319a1.242,1.242,0,0,0-2.02-.945l-10.182,8.2a1.242,1.242,0,0,0,.641,2.2l2.319.258-.634.852a7.32,7.32,0,0,1-5.912,2.973,4.754,4.754,0,0,1-4.653-3.992,28.613,28.613,0,0,1-.422-4.889V27.986h3.974a3.229,3.229,0,1,0,0-6.458H90.317V16.246a8.444,8.444,0,1,0-6.458,0v5.281H79.885a3.229,3.229,0,0,0,0,6.458h3.974V47.025a28.6,28.6,0,0,1-.422,4.889,4.758,4.758,0,0,1-4.666,3.992,7.314,7.314,0,0,1-5.9-2.973l-.634-.852,2.319-.258a1.242,1.242,0,0,0,.642-2.2l-10.182-8.2a1.242,1.242,0,0,0-2.02.945L62.749,55.78a1.242,1.242,0,0,0,2.12.9l1.762-1.761L68.223,58.1a10.927,10.927,0,0,0,9.5,6.048,8.475,8.475,0,0,1,5.485,2.209l3.04,2.777a1.242,1.242,0,0,0,1.675,0l3.04-2.777a8.467,8.467,0,0,1,5.485-2.209,10.947,10.947,0,0,0,9.5-6.048l1.593-3.185,1.762,1.761a1.244,1.244,0,0,0,2.123-.878C111.431,55.764,111.43,55.726,111.426,55.688ZM81.127,8.445a5.961,5.961,0,1,1,5.961,5.961A5.968,5.968,0,0,1,81.127,8.445Zm5.216,8.41c.246.022.494.035.745.035s.5-.013.745-.035v4.673h-1.49Zm21.74,35.091a1.242,1.242,0,0,0-1.989.323l-2.363,4.726a8.462,8.462,0,0,1-7.347,4.676,10.951,10.951,0,0,0-7.094,2.858l-2.2,2.012-2.2-2.012a10.956,10.956,0,0,0-7.094-2.858,8.448,8.448,0,0,1-7.347-4.676l-2.363-4.726a1.242,1.242,0,0,0-1.989-.323l-.8.8.145-7.8,5.883,4.736-1.5.167a1.242,1.242,0,0,0-.859,1.976l1.925,2.588a9.776,9.776,0,0,0,7.885,3.975h.02a7.234,7.234,0,0,0,7.1-6.05,31.1,31.1,0,0,0,.459-5.315V26.744A1.242,1.242,0,0,0,85.1,25.5H79.886a.745.745,0,1,1,0-1.49H94.292a.745.745,0,0,1,0,1.49H89.076a1.242,1.242,0,0,0-1.242,1.242V47.025a31.112,31.112,0,0,0,.459,5.315,7.233,7.233,0,0,0,7.1,6.05h.021a9.777,9.777,0,0,0,7.884-3.975l1.924-2.588a1.242,1.242,0,0,0-.86-1.975l-1.5-.167,5.883-4.736.145,7.8Z" transform="translate(0 0)"/></g></svg>