<?xml version="1.0" encoding="iso-8859-1"?>
<!-- Generator: Adobe Illustrator 18.0.0, SVG Export Plug-In . SVG Version: 6.00 Build 0)  -->
<!DOCTYPE svg PUBLIC "-//W3C//DTD SVG 1.1//EN" "http://www.w3.org/Graphics/SVG/1.1/DTD/svg11.dtd">
<svg version="1.1" id="Capa_1" xmlns="http://www.w3.org/2000/svg" xmlns:xlink="http://www.w3.org/1999/xlink" x="0px" y="0px"
	 viewBox="0 0 419.498 419.498" style="enable-background:new 0 0 419.498 419.498;" xml:space="preserve">
<g>
	<path d="M233.783,50.998c0-13.258-10.787-24.045-24.045-24.045c-13.258,0-24.045,10.787-24.045,24.045
		c0,13.259,10.787,24.045,24.045,24.045C222.996,75.043,233.783,64.256,233.783,50.998z M200.693,50.998
		c0-4.987,4.058-9.045,9.045-9.045c4.988,0,9.045,4.058,9.045,9.045c0,4.988-4.058,9.045-9.045,9.045
		C204.75,60.043,200.693,55.985,200.693,50.998z"/>
	<path d="M356.717,336.306l-1.49-80.437c-0.053-2.862-1.73-5.444-4.323-6.656s-5.649-0.843-7.879,0.952l-61.49,49.5
		c-2.359,1.899-3.345,5.032-2.498,7.94c0.848,2.908,3.361,5.021,6.372,5.356l14.005,1.557l-3.826,5.146
		c-8.447,11.365-21.432,17.909-35.701,17.954c-13.851,0-25.669-10.138-28.1-24.106c-1.691-9.723-2.549-19.656-2.549-29.524v-114.98
		h24c10.752,0,19.5-8.748,19.5-19.5s-8.748-19.5-19.5-19.5h-24V98.112c18.471-7.674,31.497-25.899,31.497-47.115
		C260.736,22.877,237.858,0,209.738,0c-28.12,0-50.998,22.877-50.998,50.998c0,21.217,13.026,39.442,31.499,47.115v31.895h-24
		c-10.752,0-19.5,8.748-19.5,19.5s8.748,19.5,19.5,19.5h24v114.98c0,9.87-0.857,19.803-2.548,29.523
		c-2.432,13.967-14.25,24.105-28.178,24.106c-14.193-0.045-27.177-6.589-35.626-17.957l-3.827-5.143l14.007-1.556
		c3.011-0.334,5.525-2.447,6.373-5.356c0.847-2.908-0.138-6.041-2.498-7.94l-61.49-49.5c-2.229-1.794-5.286-2.165-7.879-0.952
		c-2.593,1.212-4.27,3.794-4.323,6.656l-1.5,80.99c-0.057,3.058,1.749,5.844,4.563,7.041c2.813,1.197,6.074,0.565,8.237-1.597
		l10.642-10.636l9.618,19.235c10.942,21.884,32.933,35.879,57.386,36.523c6.147,0.166,12.123,1.406,17.771,3.69
		c5.684,2.29,10.85,5.536,15.354,9.65l18.36,16.77c1.433,1.309,3.245,1.962,5.058,1.962c1.813,0,3.626-0.654,5.058-1.962
		l18.358-16.768c9.075-8.282,20.837-13.02,33.125-13.342c11.982-0.321,23.651-3.887,33.747-10.312
		c10.11-6.438,18.285-15.502,23.64-26.212l9.618-19.235l10.642,10.636c1.46,1.459,3.396,2.207,5.406,2.195
		c4.104-0.045,7.416-3.385,7.416-7.5C356.749,336.765,356.738,336.534,356.717,336.306z M173.74,50.998
		C173.74,31.148,189.889,15,209.738,15c19.85,0,35.998,16.148,35.998,35.998c0,19.85-16.148,35.998-35.998,35.998
		C189.889,86.996,173.74,70.847,173.74,50.998z M205.239,101.786c1.484,0.13,2.982,0.21,4.499,0.21c1.518,0,3.017-0.079,4.501-0.21
		v28.222h-9V101.786z M336.531,313.703c-1.705-1.705-4.13-2.488-6.504-2.098c-2.379,0.386-4.428,1.893-5.506,4.049l-14.271,28.54
		c-4.14,8.281-10.461,15.289-18.278,20.267c-7.803,4.965-16.826,7.722-26.09,7.97c-15.888,0.417-31.102,6.546-42.841,17.26
		l-13.302,12.15l-13.301-12.149c-5.831-5.327-12.515-9.529-19.857-12.486c-7.304-2.954-15.036-4.56-22.984-4.774
		c-18.909-0.498-35.91-11.318-44.37-28.237l-14.27-28.54c-1.078-2.156-3.126-3.663-5.506-4.049
		c-0.401-0.065-0.803-0.097-1.203-0.097c-1.972,0-3.884,0.778-5.301,2.195l-4.855,4.853l0.873-47.111l35.528,28.6l-9.082,1.009
		c-2.67,0.297-4.978,1.999-6.05,4.463c-1.071,2.464-0.743,5.313,0.861,7.468l11.628,15.627
		c11.294,15.196,28.649,23.945,47.618,24.006h0.123c21.16-0.001,39.193-15.366,42.878-36.535
		c1.838-10.568,2.771-21.367,2.771-32.095v-122.48c0-4.142-3.358-7.5-7.5-7.5h-31.5c-2.481,0-4.5-2.019-4.5-4.5s2.019-4.5,4.5-4.5
		h87c2.481,0,4.5,2.019,4.5,4.5s-2.019,4.5-4.5,4.5h-31.5c-4.142,0-7.5,3.358-7.5,7.5v122.48c0,10.727,0.933,21.526,2.771,32.096
		c3.685,21.169,21.717,36.534,42.878,36.534h0.125c18.966-0.061,36.321-8.81,47.615-24.005l11.62-15.63
		c1.603-2.156,1.93-5.004,0.858-7.467c-1.072-2.463-3.379-4.165-6.049-4.462l-9.073-1.008l35.529-28.601l0.873,47.111
		L336.531,313.703z"/>
</g>
<g>
</g>
<g>
</g>
<g>
</g>
<g>
</g>
<g>
</g>
<g>
</g>
<g>
</g>
<g>
</g>
<g>
</g>
<g>
</g>
<g>
</g>
<g>
</g>
<g>
</g>
<g>
</g>
<g>
</g>
</svg>
