<svg xmlns="http://www.w3.org/2000/svg" width="29.929" height="23.515" viewBox="0 0 29.929 23.515"><defs><style>.a{fill:#4bcdff;}</style></defs><g transform="translate(0 0)"><path class="a" d="M2.873,62.119q.568.4,3.424,2.4t4.376,3.069q.167.118.71.513t.9.639q.359.244.869.546a5.023,5.023,0,0,0,.96.454,2.63,2.63,0,0,0,.835.151h.034a2.632,2.632,0,0,0,.835-.151,5.028,5.028,0,0,0,.96-.454q.509-.3.868-.546t.9-.639q.543-.4.71-.513,1.536-1.076,7.816-5.466A7.962,7.962,0,0,0,29.11,60.05a4.462,4.462,0,0,0,.819-2.539,2.7,2.7,0,0,0-2.672-2.691H2.672a2.378,2.378,0,0,0-1.979.874A3.41,3.41,0,0,0,0,57.881a3.944,3.944,0,0,0,.919,2.3A8.317,8.317,0,0,0,2.873,62.119Z" transform="translate(0 -54.82)"/><path class="a" d="M28.258,185.885q-5.477,3.7-8.317,5.743-.952.7-1.545,1.09a9.545,9.545,0,0,1-1.578.8,4.819,4.819,0,0,1-1.837.408h-.034a4.821,4.821,0,0,1-1.837-.408,9.55,9.55,0,0,1-1.578-.8q-.593-.391-1.545-1.09-2.255-1.648-8.3-5.743A8.837,8.837,0,0,1,0,184.437v13.216a2.56,2.56,0,0,0,.785,1.881,2.577,2.577,0,0,0,1.887.783H27.257a2.676,2.676,0,0,0,2.672-2.664V184.437A9.2,9.2,0,0,1,28.258,185.885Z" transform="translate(0 -176.802)"/></g></svg>