<svg xmlns="http://www.w3.org/2000/svg" width="16.181" height="29.929" viewBox="0 0 16.181 29.929"><defs><style>.a{fill:#4bcdff;}</style></defs><path class="a" d="M37.649.006,33.768,0c-4.36,0-7.178,2.891-7.178,7.365v3.4h-3.9a.61.61,0,0,0-.61.611v4.92a.61.61,0,0,0,.61.61h3.9V29.318a.61.61,0,0,0,.61.61h5.091a.61.61,0,0,0,.61-.61V16.9h4.563a.61.61,0,0,0,.61-.61l0-4.92a.611.611,0,0,0-.611-.611H32.9V7.883c0-1.384.33-2.086,2.132-2.086h2.614a.61.61,0,0,0,.61-.61V.616A.61.61,0,0,0,37.649.006Z" transform="translate(-22.077)"/></svg>