<svg xmlns="http://www.w3.org/2000/svg" width="29.929" height="19.29" viewBox="0 0 29.929 19.29"><defs><style>.a{fill:#4bcdff;}</style></defs><path class="a" d="M9.693,3.507A6.171,6.171,0,0,1,14.6,5.98l2.487-2.508a9.641,9.641,0,1,0,1.874,8.8,9.358,9.358,0,0,0,.368-2.63V8.768H10.569v3.507h4.642a6.1,6.1,0,0,1-5.518,3.508A6.191,6.191,0,0,1,3.5,9.645a6.191,6.191,0,0,1,6.19-6.138Zm0,0" transform="translate(0 0)"/><path class="a" d="M367.131,90h-3.5v2.628H361v3.5h2.628v2.628h3.5V96.131h2.686v-3.5h-2.686Zm0,0" transform="translate(-339.889 -84.735)"/></svg>