<?xml version="1.0" encoding="iso-8859-1"?>
<!-- Generator: Adobe Illustrator 17.1.0, SVG Export Plug-In . SVG Version: 6.00 Build 0)  -->
<!DOCTYPE svg PUBLIC "-//W3C//DTD SVG 1.1//EN" "http://www.w3.org/Graphics/SVG/1.1/DTD/svg11.dtd">
<svg version="1.1" id="Capa_1" xmlns="http://www.w3.org/2000/svg" xmlns:xlink="http://www.w3.org/1999/xlink" x="0px" y="0px"
	 viewBox="0 0 490.003 490.003" style="enable-background:new 0 0 490.003 490.003;" xml:space="preserve">
<path d="M470.951,152.282c-1.22-2.977-2.523-5.873-3.828-8.768V69.342c0-25.619-20.843-46.462-46.463-46.462h-74.228
	c-2.396-1.081-4.771-2.185-7.224-3.211C307.851,6.557,276.468,0.002,245.067,0c-30.906,0-61.833,6.35-92.786,19.049
	c-2.979,1.223-5.878,2.525-8.774,3.831H69.341c-25.619,0-46.462,20.843-46.462,46.462v74.227c-1.081,2.395-2.185,4.77-3.211,7.222
	c-26.015,62.227-26.221,124.536-0.618,186.932c1.222,2.977,2.522,5.874,3.829,8.767v74.175c0,25.617,20.843,46.461,46.462,46.461
	h74.232c2.396,1.082,4.77,2.186,7.224,3.211c31.356,13.111,62.741,19.668,94.141,19.668c30.907,0,61.831-6.348,92.783-19.047
	c2.979-1.224,5.88-2.525,8.776-3.832h74.162c25.621,0,46.463-20.844,46.463-46.461v-74.222c1.083-2.397,2.188-4.772,3.213-7.229
	C496.35,276.986,496.555,214.678,470.951,152.282z M420.66,46.793c12.435,0,22.549,10.115,22.549,22.549v32.134
	c-15.105-21.348-33.36-39.567-54.741-54.683H420.66z M359.164,292.732c-12.637,30.191-36.902,54.287-67.194,66.73
	c-14.484,5.951-30.338,9.254-46.969,9.254c-16.919,0-33.04-3.405-47.728-9.553c-30.191-12.636-54.289-36.9-66.734-67.191
	c-5.951-14.486-9.255-30.339-9.255-46.972c0-16.92,3.406-33.041,9.555-47.731c12.638-30.189,36.902-54.287,67.193-66.728
	c14.485-5.951,30.338-9.255,46.969-9.255c16.92,0,33.041,3.405,47.729,9.553c30.191,12.638,54.291,36.901,66.734,67.192
	c5.951,14.485,9.255,30.338,9.255,46.969C368.718,261.924,365.312,278.045,359.164,292.732z M243.657,21.066
	c21.916,0.002,44.118,3.6,66.243,10.725L279.42,104.69c-11.642-2.971-23.628-4.47-35.828-4.47c-11.862,0-23.537,1.425-34.898,4.249
	l-30.001-73.114C200.418,24.521,222.193,21.066,243.657,21.066z M46.792,69.342c0-12.434,10.115-22.549,22.549-22.549h32.131
	c-21.346,15.106-39.565,33.361-54.68,54.743V69.342z M31.765,180.092l72.924,30.491c-2.973,11.642-4.471,23.629-4.471,35.829
	c0,11.863,1.424,23.538,4.247,34.899l-73.135,30.012C17.372,267.29,17.514,224.033,31.765,180.092z M69.341,443.21
	c-12.434,0-22.549-10.113-22.549-22.547v-32.136c15.106,21.348,33.362,39.567,54.745,54.683H69.341z M244.938,468.938
	c-21.912,0-44.116-3.601-66.241-10.723l30.477-72.902c11.641,2.972,23.629,4.472,35.827,4.472c11.863,0,23.537-1.425,34.897-4.249
	l30.002,73.114C288.177,465.483,266.403,468.938,244.938,468.938z M443.209,420.663c0,12.434-10.114,22.547-22.549,22.547h-32.129
	c21.346-15.105,39.565-33.358,54.678-54.738V420.663z M458.24,311.323l-72.928-30.491c2.973-11.641,4.472-23.629,4.472-35.831
	c0-11.861-1.424-23.537-4.249-34.898l73.135-30.013C472.631,224.125,472.488,267.381,458.24,311.323z"/>
<g>
</g>
<g>
</g>
<g>
</g>
<g>
</g>
<g>
</g>
<g>
</g>
<g>
</g>
<g>
</g>
<g>
</g>
<g>
</g>
<g>
</g>
<g>
</g>
<g>
</g>
<g>
</g>
<g>
</g>
</svg>
