<svg xmlns="http://www.w3.org/2000/svg" width="99.999" height="100" viewBox="0 0 99.999 100"><defs><style>.a{fill:#fff;}</style></defs><path class="a" d="M96.112,31.078c-.249-.608-.515-1.2-.781-1.789V14.151a9.493,9.493,0,0,0-9.482-9.482H70.7c-.489-.221-.974-.446-1.474-.655A49.467,49.467,0,0,0,50.014,0,49.557,49.557,0,0,0,31.078,3.888c-.608.25-1.2.515-1.791.782H14.152A9.493,9.493,0,0,0,4.67,14.151V29.3c-.221.489-.446.973-.655,1.474a48.027,48.027,0,0,0-.126,38.149c.249.608.515,1.2.781,1.789V85.849a9.493,9.493,0,0,0,9.482,9.482H29.3c.489.221.973.446,1.474.655A49.463,49.463,0,0,0,49.988,100a49.552,49.552,0,0,0,18.935-3.887c.608-.25,1.2-.515,1.791-.782H85.849a9.493,9.493,0,0,0,9.482-9.482V70.7c.221-.489.447-.974.656-1.475A48.026,48.026,0,0,0,96.112,31.078ZM85.849,9.549a4.607,4.607,0,0,1,4.6,4.6v6.558A46.386,46.386,0,0,0,79.279,9.549ZM73.3,59.741A25.287,25.287,0,1,1,75.249,50,25.327,25.327,0,0,1,73.3,59.741ZM49.726,4.3A44.032,44.032,0,0,1,63.245,6.488l-6.22,14.877a29.72,29.72,0,0,0-14.434-.045L36.468,6.4A44.112,44.112,0,0,1,49.726,4.3ZM9.55,14.151a4.607,4.607,0,0,1,4.6-4.6h6.557A46.388,46.388,0,0,0,9.55,20.721Zm-3.067,22.6,14.882,6.223A29.725,29.725,0,0,0,21.32,57.41L6.395,63.535A42.61,42.61,0,0,1,6.483,36.753Zm7.668,53.7a4.607,4.607,0,0,1-4.6-4.6V79.29A46.385,46.385,0,0,0,20.722,90.45H14.152ZM49.988,95.7a44.039,44.039,0,0,1-13.518-2.188l6.22-14.878a29.712,29.712,0,0,0,14.433.046L63.245,93.6A44.113,44.113,0,0,1,49.988,95.7Zm40.463-9.852a4.606,4.606,0,0,1-4.6,4.6H79.292A46.379,46.379,0,0,0,90.451,79.279Zm3.068-22.314L78.635,57.312a29.716,29.716,0,0,0,.046-14.434l14.925-6.125A42.611,42.611,0,0,1,93.518,63.535Z" transform="translate(-0.001)"/></svg>