<svg xmlns="http://www.w3.org/2000/svg" xmlns:xlink="http://www.w3.org/1999/xlink" width="332.118" height="332.12" viewBox="0 0 332.118 332.12"><defs><style>.a{fill:#4bcdff;}.b{filter:url(#a);}</style><filter id="a" x="0" y="0" width="332.118" height="332.12" filterUnits="userSpaceOnUse"><feOffset dx="15" dy="15" input="SourceAlpha"/><feGaussianBlur stdDeviation="7.5" result="b"/><feFlood flood-color="#4bcdff" flood-opacity="0.302"/><feComposite operator="in" in2="b"/><feComposite in="SourceGraphic"/></filter></defs><g class="b" transform="matrix(1, 0, 0, 1, 0, 0)"><path class="a" d="M275.956,89.23c-.715-1.744-1.478-3.441-2.243-5.138V40.631a27.256,27.256,0,0,0-27.225-27.225H202.994c-1.4-.633-2.8-1.28-4.233-1.881Q171.2,0,143.6,0A142.289,142.289,0,0,0,89.23,11.162c-1.746.717-3.444,1.48-5.141,2.245H40.631A27.256,27.256,0,0,0,13.406,40.631V84.125c-.633,1.4-1.28,2.8-1.881,4.232Q-11.34,143.05,11.163,197.89c.716,1.744,1.478,3.442,2.244,5.137V246.49a27.256,27.256,0,0,0,27.225,27.224h43.5c1.4.634,2.8,1.281,4.233,1.882q27.56,11.524,55.162,11.525a142.274,142.274,0,0,0,54.367-11.161c1.746-.717,3.445-1.48,5.142-2.245h43.456a27.256,27.256,0,0,0,27.225-27.224V203c.635-1.4,1.282-2.8,1.883-4.236Q298.461,144.07,275.956,89.23ZM246.488,27.419A13.227,13.227,0,0,1,259.7,40.631V59.46a133.182,133.182,0,0,0-32.076-32.042ZM210.454,171.528a72.6,72.6,0,1,1,5.6-27.969A72.72,72.72,0,0,1,210.454,171.528ZM142.772,12.344a126.426,126.426,0,0,1,38.815,6.284l-17.86,42.715a85.333,85.333,0,0,0-41.442-.129L104.706,18.373A126.655,126.655,0,0,1,142.772,12.344ZM27.418,40.631A13.227,13.227,0,0,1,40.631,27.419H59.458A133.19,133.19,0,0,0,27.418,59.5Zm-8.805,64.894,42.73,17.866a85.347,85.347,0,0,0-.131,41.443L18.358,182.421A122.341,122.341,0,0,1,18.613,105.526ZM40.631,259.7a13.226,13.226,0,0,1-13.213-13.212v-18.83A133.181,133.181,0,0,0,59.5,259.7Zm102.892,15.075a126.447,126.447,0,0,1-38.814-6.283l17.858-42.717a85.31,85.31,0,0,0,41.441.131l17.58,42.841A126.656,126.656,0,0,1,143.523,274.776ZM259.7,246.489A13.226,13.226,0,0,1,246.488,259.7H227.662A133.162,133.162,0,0,0,259.7,227.627Zm8.807-64.068-42.732-17.866a85.321,85.321,0,0,0,.131-41.444l42.854-17.586A122.345,122.345,0,0,1,268.508,182.421Z" transform="translate(7.5 7.5)"/></g></svg>