<svg xmlns="http://www.w3.org/2000/svg" width="41" height="64.342" viewBox="0 0 41 64.342"><defs><style>.a{fill:#fff;}.b,.c{stroke:none;}.c{fill:#4bcdff;}</style></defs><g class="a"><path class="b" d="M 20.50020027160645 59.55942916870117 C 18.53550148010254 56.30484390258789 15.46708011627197 51.09835052490234 12.4526891708374 45.48416137695313 C 9.516400337219238 40.01547241210938 7.181533813476563 35.19963073730469 5.51294469833374 31.17040824890137 C 3.022711277008057 25.15717315673828 2.500000238418579 22.04887390136719 2.500000238418579 20.50019645690918 C 2.500000238418579 15.69214057922363 4.372344493865967 11.17188549041748 7.772122383117676 7.77211856842041 C 11.17187786102295 4.372340679168701 15.69212245941162 2.500007390975952 20.50020027160645 2.500007390975952 C 25.30826759338379 2.500007390975952 29.82852172851563 4.372340679168701 33.22829055786133 7.77211856842041 C 36.62806701660156 11.17189598083496 38.50040054321289 15.69214057922363 38.50040054321289 20.50019645690918 C 38.50040054321289 22.04886245727539 37.97768783569336 25.15717315673828 35.48746871948242 31.17039680480957 C 33.81885528564453 35.19965362548828 31.48398971557617 40.01549530029297 28.5477123260498 45.48415374755859 C 25.53332138061523 51.09834671020508 22.46490287780762 56.30483627319336 20.50020027160645 59.55942916870117 Z M 20.50020027160645 10.49959659576416 C 16.08904457092285 10.49959659576416 12.50030040740967 14.08874034881592 12.50030040740967 18.50039672851563 C 12.50030040740967 22.91155242919922 16.08904457092285 26.50029563903809 20.50020027160645 26.50029563903809 C 24.91135597229004 26.50029563903809 28.50010108947754 22.91155242919922 28.50010108947754 18.50039672851563 C 28.50010108947754 14.08874034881592 24.91135597229004 10.49959659576416 20.50020027160645 10.49959659576416 Z"/><path class="c" d="M 20.50019645690918 54.67314910888672 C 22.22946739196777 51.73030853271484 24.30147361755371 48.10773849487305 26.34511947631836 44.3015251159668 C 29.24206733703613 38.9061393737793 31.54086685180664 34.16636657714844 33.17769241333008 30.21387100219727 C 35.72534561157227 24.06192588806152 36.00040054321289 21.37141799926758 36.00040054321289 20.50020599365234 C 36.00040054321289 16.35992431640625 34.38810729980469 12.46747207641602 31.46051979064941 9.539885520935059 C 28.53293418884277 6.612298488616943 24.64048004150391 5.00000524520874 20.50020027160645 5.00000524520874 C 16.35992050170898 5.00000524520874 12.46746730804443 6.612298488616943 9.53987979888916 9.539885520935059 C 6.612293720245361 12.46747207641602 5.000000476837158 16.35992431640625 5.000000476837158 20.50020599365234 C 5.000000476837158 21.37141799926758 5.27505350112915 24.06192588806152 7.822707176208496 30.21385765075684 C 9.45953369140625 34.16636657714844 11.75833320617676 38.9061393737793 14.65529346466064 44.30155181884766 C 16.69891929626465 48.10773086547852 18.77095222473145 51.73035049438477 20.50019645690918 54.67314910888672 M 20.50020027160645 7.999605178833008 C 26.28986740112305 7.999605178833008 31.00010681152344 12.71024513244629 31.00010681152344 18.50040435791016 C 31.00010681152344 24.29007148742676 26.28986740112305 29.00029945373535 20.50020027160645 29.00029945373535 C 14.71053314208984 29.00029945373535 10.00030708312988 24.29007148742676 10.00030708312988 18.50040435791016 C 10.00030708312988 12.71024513244629 14.71053314208984 7.999605178833008 20.50020027160645 7.999605178833008 M 20.50020027160645 64.34189605712891 L 20.49934768676758 64.34055328369141 C 20.44778633117676 64.25867462158203 15.28501319885254 56.04412460327148 10.25010681152344 46.66679000854492 C 7.274453639984131 41.12480545043945 4.903533458709717 36.23288345336914 3.203160285949707 32.12692642211914 C 1.077706933021545 26.99449920654297 2.716064386731887e-07 23.08271217346191 2.716064386731887e-07 20.50020599365234 C 2.716064386731887e-07 15.02436542510986 2.132386922836304 9.876312255859375 6.00434684753418 6.004351615905762 C 9.876306533813477 2.132391929626465 15.02436065673828 5.176595095690573e-06 20.50020027160645 5.176595095690573e-06 C 25.97603988647461 5.176595095690573e-06 31.12409400939941 2.132391929626465 34.99605178833008 6.004351615905762 C 38.86801528930664 9.876312255859375 41.00040054321289 15.02436542510986 41.00040054321289 20.50020599365234 C 41.00040054321289 23.08271217346191 39.92269515991211 26.99449920654297 37.7972412109375 32.12692642211914 C 36.09686660766602 36.23288345336914 33.72594833374023 41.12480545043945 30.75029373168945 46.66679000854492 C 25.71537399291992 56.04412460327148 20.55261421203613 64.25867462158203 20.50105285644531 64.34055328369141 L 20.50020027160645 64.34189605712891 Z M 20.50020027160645 12.99960517883301 C 17.4675464630127 12.99960517883301 15.00030708312988 15.46724510192871 15.00030708312988 18.50040435791016 C 15.00030708312988 21.53305816650391 17.4675464630127 24.00029945373535 20.50020027160645 24.00029945373535 C 23.5328540802002 24.00029945373535 26.00010681152344 21.53305816650391 26.00010681152344 18.50040435791016 C 26.00010681152344 15.46724510192871 23.5328540802002 12.99960517883301 20.50020027160645 12.99960517883301 Z"/></g></svg>