<svg xmlns="http://www.w3.org/2000/svg" width="41" height="64.342" viewBox="0 0 41 64.342"><defs><style>.a{fill:#fff;}</style></defs><path class="a" d="M20.5,64.342h0c-.052-.082-5.214-8.3-10.249-17.674C7.274,41.125,4.9,36.233,3.2,32.127,1.078,26.994,0,23.083,0,20.5A20.5,20.5,0,0,1,35,6a20.366,20.366,0,0,1,6,14.5c0,2.583-1.078,6.494-3.2,11.627-1.7,4.106-4.071,9-7.047,14.54-5.035,9.377-10.2,17.592-10.249,17.674ZM20.5,13A5.5,5.5,0,1,0,26,18.5,5.507,5.507,0,0,0,20.5,13Z" transform="translate(0)"/></svg>