<svg xmlns="http://www.w3.org/2000/svg" width="111" height="111" viewBox="0 0 111 111"><defs><style>.a{fill:#f13056;}.b,.d{fill:#fff;}.b{stroke-linecap:round;stroke-linejoin:round;}.c,.d{stroke:none;}</style></defs><g transform="translate(-1065 -294)"><circle class="a" cx="55.5" cy="55.5" r="55.5" transform="translate(1065 294)"/><g class="b" transform="translate(208.135 15.57)"><path class="c" d="M 894.693115234375 357.98388671875 L 894.693115234375 357.111572265625 L 894.693115234375 310.1898803710938 L 894.693115234375 309.3495483398438 L 895.431640625 309.7504577636719 L 937.0078125 332.3204040527344 L 937.786865234375 332.7432861328125 L 937.02197265625 333.1912536621094 L 895.44580078125 357.5430297851563 L 894.693115234375 357.98388671875 Z"/><path class="d" d="M 895.193115234375 310.1898803710938 L 895.193115234375 357.111572265625 L 936.769287109375 332.7598266601563 L 895.193115234375 310.1898803710938 M 895.193115234375 309.1898803710938 C 895.3571166992188 309.1898803710938 895.521240234375 309.2301635742188 895.6702270507813 309.31103515625 L 937.2463989257813 331.8809814453125 C 937.5635375976563 332.0531311035156 937.7633056640625 332.3827819824219 937.7691650390625 332.7435913085938 C 937.7750244140625 333.1043701171875 937.5860595703125 333.4403381347656 937.2747192382813 333.6227111816406 L 895.698486328125 357.9744567871094 C 895.5425415039063 358.0658264160156 895.3677978515625 358.111572265625 895.193115234375 358.111572265625 C 895.021484375 358.111572265625 894.8499145507813 358.0674743652344 894.69580078125 357.9791564941406 C 894.3848876953125 357.8009338378906 894.193115234375 357.4699401855469 894.193115234375 357.111572265625 L 894.193115234375 310.1898803710938 C 894.193115234375 309.8373107910156 894.3787841796875 309.5107727050781 894.6817626953125 309.3304748535156 C 894.839111328125 309.2368774414063 895.0160522460938 309.1898803710938 895.193115234375 309.1898803710938 Z"/></g></g></svg>