<svg xmlns="http://www.w3.org/2000/svg" width="179.572" height="168.183" viewBox="0 0 179.572 168.183"><defs><style>.a{fill:#4bcdff;}</style></defs><g transform="translate(0 -0.213)"><path class="a" d="M113.684,168.4a83.934,83.934,0,0,1-81.59-63.657,2.944,2.944,0,0,1,5.712-1.427,78.2,78.2,0,1,0,2.182-45.24A2.943,2.943,0,1,1,34.443,56.1a84.1,84.1,0,1,1,79.242,112.3Zm0,0" transform="translate(-18.204)"/><path class="a" d="M139.687,175.454a61.965,61.965,0,1,1,61.966-61.966A62.037,62.037,0,0,1,139.687,175.454Zm0-118.043a56.077,56.077,0,1,0,56.077,56.077A56.141,56.141,0,0,0,139.687,57.411Zm0,0" transform="translate(-44.207 -29.184)"/><path class="a" d="M28.118,182.78H16.15a2.942,2.942,0,0,1-2.943-2.943V153.343A2.944,2.944,0,0,1,16.15,150.4H28.118a2.944,2.944,0,0,1,2.944,2.944v26.495A2.943,2.943,0,0,1,28.118,182.78Zm-9.024-5.887h6.081V156.287H19.094Zm0,0" transform="translate(-7.512 -85.422)"/><path class="a" d="M141.7,220.576a9.9,9.9,0,0,1-5.946-1.969l-3.381-2.537a4.047,4.047,0,0,0-4.551-.189l-5.17,3.249a2.949,2.949,0,0,1-4.147-1.075,47.335,47.335,0,0,1-4.637-12.27,2.946,2.946,0,0,1,1.305-3.147l9.517-5.978a9.967,9.967,0,0,1,11.215.463l3.381,2.537a4.048,4.048,0,0,0,4.824,0l2.378-1.786a9.955,9.955,0,0,1,12.952.921,4.043,4.043,0,0,0,5.255.374l2.378-1.786a9.958,9.958,0,0,1,11.887,0l3.034,2.272a4.038,4.038,0,0,0,4.824,0l2.943-2.207a9.93,9.93,0,0,1,12.051.125l4.083,3.2a2.94,2.94,0,0,1,1.085,2.837,47.145,47.145,0,0,1-3.925,12.113,2.938,2.938,0,0,1-1.984,1.59,2.968,2.968,0,0,1-2.485-.547l-.4-.317a4.028,4.028,0,0,0-4.89-.051l-2.943,2.207a9.966,9.966,0,0,1-11.889,0l-3.034-2.274a4.04,4.04,0,0,0-4.823,0l-2.378,1.786a9.96,9.96,0,0,1-12.952-.921,4.044,4.044,0,0,0-5.255-.372l-2.378,1.784a9.893,9.893,0,0,1-5.943,1.969Zm-5.795-9.214,3.381,2.535a4.048,4.048,0,0,0,4.824,0l2.378-1.786a9.959,9.959,0,0,1,12.952.921,4.043,4.043,0,0,0,5.255.374l2.378-1.786a9.961,9.961,0,0,1,11.889,0l3.032,2.272a4.038,4.038,0,0,0,4.824,0l2.943-2.207a9.913,9.913,0,0,1,9.248-1.412,41.116,41.116,0,0,0,1.828-5.985l-2.653-2.077a4.026,4.026,0,0,0-4.89-.052l-2.943,2.207a9.966,9.966,0,0,1-11.889,0l-3.034-2.274a4.04,4.04,0,0,0-4.823,0l-2.378,1.786a9.964,9.964,0,0,1-12.952-.921,4.042,4.042,0,0,0-5.255-.374l-2.378,1.786a9.966,9.966,0,0,1-11.889,0l-3.381-2.537a4.047,4.047,0,0,0-4.551-.189l-7.7,4.839a41.358,41.358,0,0,0,2.148,5.933l2.422-1.521a9.96,9.96,0,0,1,11.217.465Zm0,0" transform="translate(-64.722 -110.879)"/><path class="a" d="M21.452,144.641H7.215a7.361,7.361,0,0,1,0-14.719H21.452a7.361,7.361,0,0,1,0,14.719ZM7.215,135.809a1.329,1.329,0,0,0-1.327,1.327c0,1.021.6,1.615,1.327,1.615H21.452a1.327,1.327,0,0,0,1.327-1.326c0-1.022-.595-1.617-1.327-1.617Zm0,0" transform="translate(0 -73.776)"/><path class="a" d="M21.452,226.368H7.215A7.223,7.223,0,0,1,0,219.153v-.435A7.223,7.223,0,0,1,7.215,211.5H21.452a7.223,7.223,0,0,1,7.215,7.215v.435A7.223,7.223,0,0,1,21.452,226.368ZM7.215,217.391a1.33,1.33,0,0,0-1.327,1.329v.435a1.328,1.328,0,0,0,1.327,1.326H21.452a1.327,1.327,0,0,0,1.327-1.326v-.435a1.329,1.329,0,0,0-1.327-1.329Zm0,0" transform="translate(0 -120.178)"/><path class="a" d="M115.214,145.379a2.945,2.945,0,0,1-2.867-2.289,47.55,47.55,0,1,1,93.9-10.6,47.293,47.293,0,0,1-.788,8.431,2.944,2.944,0,1,1-5.795-1.043,41.66,41.66,0,1,0-82.656-7.39,41.941,41.941,0,0,0,1.08,9.295,2.946,2.946,0,0,1-2.874,3.6Zm0,0" transform="translate(-63.203 -48.183)"/><path class="a" d="M147.428,256.378a9.9,9.9,0,0,1-5.944-1.967l-3.381-2.538a3.944,3.944,0,0,0-3.163-.677,2.956,2.956,0,0,1-2.634-.812,47.765,47.765,0,0,1-8.07-10.762,2.944,2.944,0,1,1,5.161-2.835,41.9,41.9,0,0,0,6.118,8.446,9.753,9.753,0,0,1,6.12,1.929l3.382,2.538a4.048,4.048,0,0,0,4.824,0l2.378-1.786a9.958,9.958,0,0,1,12.952.921,4.04,4.04,0,0,0,5.256.372l2.378-1.784a9.963,9.963,0,0,1,11.887,0l3.034,2.277a3.954,3.954,0,0,0,2.636.782,41.857,41.857,0,0,0,13.117-15.741,2.944,2.944,0,0,1,5.308,2.547,47.757,47.757,0,0,1-15.618,18.425,2.937,2.937,0,0,1-1.12.475,9.9,9.9,0,0,1-7.856-1.779l-3.032-2.276a4.043,4.043,0,0,0-4.824,0l-2.377,1.784A9.965,9.965,0,0,1,161.007,253a4.046,4.046,0,0,0-5.257-.376l-2.377,1.784a9.889,9.889,0,0,1-5.944,1.971Zm0,0" transform="translate(-70.455 -132.444)"/><path class="a" d="M175.924,280.52A47.251,47.251,0,0,1,142.3,266.593a2.943,2.943,0,1,1,4.162-4.162,41.615,41.615,0,0,0,53.321,4.668,2.945,2.945,0,1,1,3.379,4.824,47.26,47.26,0,0,1-27.234,8.6Zm0,0" transform="translate(-80.444 -148.654)"/><path class="a" d="M220.456,25.108a4.416,4.416,0,1,1-4.415-4.417A4.414,4.414,0,0,1,220.456,25.108Zm0,0" transform="translate(-120.368 -11.648)"/><path class="a" d="M220.456,352.79a4.416,4.416,0,1,1-4.415-4.415A4.414,4.414,0,0,1,220.456,352.79Zm0,0" transform="translate(-120.368 -198.027)"/><path class="a" d="M384.3,188.95a4.416,4.416,0,1,1-4.415-4.415A4.414,4.414,0,0,1,384.3,188.95Zm0,0" transform="translate(-213.556 -104.838)"/><path class="a" d="M333.389,303.409a4.416,4.416,0,1,0-.091,6.244A4.415,4.415,0,0,0,333.389,303.409Zm0,0" transform="translate(-185.312 -171.69)"/><path class="a" d="M105.05,68.366a4.415,4.415,0,1,0-.091,6.244,4.415,4.415,0,0,0,.091-6.244Zm0,0" transform="translate(-55.437 -38.002)"/><path class="a" d="M333.286,68.248a4.416,4.416,0,1,0,.091,6.244A4.415,4.415,0,0,0,333.286,68.248Zm0,0" transform="translate(-185.305 -37.986)"/><path class="a" d="M104.969,303.287a4.416,4.416,0,1,0,.091,6.244A4.415,4.415,0,0,0,104.969,303.287Zm0,0" transform="translate(-55.442 -171.672)"/></g></svg>