<svg xmlns="http://www.w3.org/2000/svg" width="106" height="100" viewBox="0 0 106 100"><defs><style>.a{fill:#fff;}</style></defs><path class="a" d="M80.2,100.213a49.594,49.594,0,0,1-48.137-37.85,1.738,1.738,0,1,1,3.37-.848,46.109,46.109,0,0,0,90.908-11.3,46.1,46.1,0,0,0-89.62-15.6A1.734,1.734,0,0,1,34.5,35.678a1.753,1.753,0,0,1-1.053-2.235A49.739,49.739,0,0,1,80.2.213c27.357,0,49.613,22.43,49.613,50s-22.257,50-49.613,50Zm0,0" transform="translate(-23.809 -0.213)"/><path class="a" d="M114.522,125.243a36.86,36.86,0,1,1,36.8-36.86A36.872,36.872,0,0,1,114.522,125.243Zm0-70.217a33.357,33.357,0,1,0,33.3,33.357A33.368,33.368,0,0,0,114.522,55.026Zm0,0" transform="translate(-58.463 -38.384)"/><path class="a" d="M22.062,169.629H14.955a1.747,1.747,0,0,1-1.748-1.748V152.147a1.748,1.748,0,0,1,1.748-1.749h7.108a1.749,1.749,0,0,1,1.749,1.749v15.735A1.748,1.748,0,0,1,22.062,169.629Zm-5.359-3.5h3.611V153.9H16.7Zm0,0" transform="translate(-9.825 -111.88)"/><path class="a" d="M130.364,210.252a5.881,5.881,0,0,1-3.531-1.169l-2.008-1.507a2.4,2.4,0,0,0-2.7-.112l-3.07,1.93a1.751,1.751,0,0,1-2.463-.638,28.112,28.112,0,0,1-2.754-7.287,1.75,1.75,0,0,1,.775-1.869l5.652-3.55a5.919,5.919,0,0,1,6.66.275l2.008,1.507a2.4,2.4,0,0,0,2.865,0l1.413-1.06a5.912,5.912,0,0,1,7.692.547,2.4,2.4,0,0,0,3.121.222l1.412-1.06a5.914,5.914,0,0,1,7.06,0l1.8,1.35a2.4,2.4,0,0,0,2.865,0l1.748-1.311a5.9,5.9,0,0,1,7.157.074l2.425,1.9a1.746,1.746,0,0,1,.644,1.685,28,28,0,0,1-2.331,7.194,1.745,1.745,0,0,1-1.178.944,1.763,1.763,0,0,1-1.476-.325l-.239-.188a2.392,2.392,0,0,0-2.9-.03l-1.748,1.31a5.919,5.919,0,0,1-7.061,0l-1.8-1.35a2.4,2.4,0,0,0-2.864,0l-1.413,1.06a5.915,5.915,0,0,1-7.692-.547,2.4,2.4,0,0,0-3.121-.221l-1.413,1.059a5.875,5.875,0,0,1-3.529,1.169Zm-3.441-5.472,2.008,1.506a2.4,2.4,0,0,0,2.865,0l1.413-1.06a5.914,5.914,0,0,1,7.692.547,2.4,2.4,0,0,0,3.121.222l1.413-1.06a5.915,5.915,0,0,1,7.061,0l1.8,1.349a2.4,2.4,0,0,0,2.865,0l1.748-1.31a5.887,5.887,0,0,1,5.492-.838,24.42,24.42,0,0,0,1.085-3.554l-1.576-1.233a2.391,2.391,0,0,0-2.9-.031l-1.748,1.31a5.919,5.919,0,0,1-7.061,0l-1.8-1.35a2.4,2.4,0,0,0-2.864,0l-1.413,1.06a5.918,5.918,0,0,1-7.692-.547,2.4,2.4,0,0,0-3.121-.222l-1.413,1.06a5.918,5.918,0,0,1-7.061,0l-2.008-1.507a2.4,2.4,0,0,0-2.7-.112l-4.575,2.874a24.56,24.56,0,0,0,1.275,3.523l1.439-.9A5.915,5.915,0,0,1,126.923,204.78Zm0,0" transform="translate(-85.016 -145.162)"/><path class="a" d="M12.74,138.663H4.285a4.371,4.371,0,0,1,0-8.741H12.74a4.371,4.371,0,0,1,0,8.741Zm-8.455-5.245a.789.789,0,0,0-.788.788c0,.606.354.959.788.959H12.74a.788.788,0,0,0,.788-.787c0-.607-.353-.96-.788-.96Zm0,0" transform="translate(0 -96.661)"/><path class="a" d="M12.74,220.331H4.285A4.29,4.29,0,0,1,0,216.047v-.258A4.29,4.29,0,0,1,4.285,211.5H12.74a4.29,4.29,0,0,1,4.285,4.285v.258A4.29,4.29,0,0,1,12.74,220.331ZM4.285,215a.79.79,0,0,0-.788.789v.258a.789.789,0,0,0,.788.787H12.74a.788.788,0,0,0,.788-.787v-.258A.789.789,0,0,0,12.74,215Zm0,0" transform="translate(0 -157.323)"/><path class="a" d="M113.552,120.828a1.749,1.749,0,0,1-1.7-1.359,28.239,28.239,0,1,1,55.765-6.3,28.087,28.087,0,0,1-.468,5.007,1.748,1.748,0,1,1-3.441-.619,24.741,24.741,0,1,0-49.088-4.389,24.908,24.908,0,0,0,.641,5.52,1.75,1.75,0,0,1-1.707,2.137Zm0,0" transform="translate(-83.029 -63.191)"/><path class="a" d="M137.861,246.912a5.879,5.879,0,0,1-3.53-1.168l-2.008-1.508a2.342,2.342,0,0,0-1.879-.4,1.755,1.755,0,0,1-1.565-.482,28.367,28.367,0,0,1-4.793-6.391,1.749,1.749,0,1,1,3.065-1.684,24.883,24.883,0,0,0,3.633,5.016,5.792,5.792,0,0,1,3.634,1.145l2.009,1.508a2.4,2.4,0,0,0,2.865,0l1.413-1.06a5.914,5.914,0,0,1,7.692.547,2.4,2.4,0,0,0,3.121.221l1.413-1.059a5.917,5.917,0,0,1,7.06,0l1.8,1.353a2.348,2.348,0,0,0,1.566.464,24.858,24.858,0,0,0,7.79-9.348,1.748,1.748,0,0,1,3.152,1.513,28.362,28.362,0,0,1-9.275,10.942,1.744,1.744,0,0,1-.665.282,5.878,5.878,0,0,1-4.666-1.056l-1.8-1.352a2.4,2.4,0,0,0-2.865,0l-1.412,1.059a5.918,5.918,0,0,1-7.692-.545,2.4,2.4,0,0,0-3.122-.223l-1.412,1.059a5.873,5.873,0,0,1-3.53,1.17Zm0,0" transform="translate(-92.513 -173.354)"/><path class="a" d="M161.916,272.823a28.061,28.061,0,0,1-19.971-8.271,1.748,1.748,0,1,1,2.472-2.472,24.714,24.714,0,0,0,31.667,2.772,1.749,1.749,0,0,1,2.007,2.865A28.067,28.067,0,0,1,161.916,272.823Zm0,0" transform="translate(-105.55 -194.547)"/><path class="a" d="M216.869,23.314a2.622,2.622,0,1,1-2.622-2.623A2.621,2.621,0,0,1,216.869,23.314Zm0,0" transform="translate(-157.773 -15.447)"/><path class="a" d="M216.869,351a2.622,2.622,0,1,1-2.622-2.622A2.621,2.621,0,0,1,216.869,351Zm0,0" transform="translate(-157.773 -259.094)"/><path class="a" d="M380.709,187.157a2.622,2.622,0,1,1-2.622-2.622A2.621,2.621,0,0,1,380.709,187.157Zm0,0" transform="translate(-279.955 -137.272)"/><path class="a" d="M330.31,302.865a2.622,2.622,0,1,0-.054,3.708A2.622,2.622,0,0,0,330.31,302.865Zm0,0" transform="translate(-242.9 -224.669)"/><path class="a" d="M101.97,67.822a2.622,2.622,0,1,0-.054,3.708A2.622,2.622,0,0,0,101.97,67.822Zm0,0" transform="translate(-72.665 -49.894)"/><path class="a" d="M330.244,67.74a2.622,2.622,0,1,0,.054,3.708A2.622,2.622,0,0,0,330.244,67.74Zm0,0" transform="translate(-242.891 -49.874)"/><path class="a" d="M101.926,302.78a2.622,2.622,0,1,0,.054,3.708A2.622,2.622,0,0,0,101.926,302.78Zm0,0" transform="translate(-72.672 -224.646)"/></svg>