<svg height="416pt" viewBox="0 -13 416.42667 416" width="416pt" xmlns="http://www.w3.org/2000/svg"><path d="m221.417969 390.230469c-89.703125 0-167.507813-60.703125-189.207031-147.621094-.914063-3.660156 1.3125-7.363281 4.96875-8.277344 3.640624-.90625 7.367187 1.308594 8.277343 4.96875 20.179688 80.824219 92.539063 137.277344 175.964844 137.277344 100 0 181.351563-81.355469 181.351563-181.359375 0-100-81.351563-181.351562-181.355469-181.351562-76.558594 0-145.238281 48.433593-170.902344 120.523437-1.261719 3.550781-5.183594 5.40625-8.71875 4.140625-3.550781-1.265625-5.40625-5.167969-4.140625-8.71875 27.589844-77.519531 101.441406-129.597656 183.761719-129.597656 107.527343 0 195.007812 87.480468 195.007812 195.003906 0 107.53125-87.480469 195.011719-195.007812 195.011719zm0 0"/><path d="m221.417969 338.917969c-79.230469 0-143.695313-64.464844-143.695313-143.699219 0-79.230469 64.464844-143.695312 143.695313-143.695312 79.234375 0 143.699219 64.464843 143.699219 143.695312 0 79.234375-64.464844 143.699219-143.699219 143.699219zm0-273.742188c-71.707031 0-130.042969 58.339844-130.042969 130.042969 0 71.707031 58.339844 130.042969 130.042969 130.042969 71.707031 0 130.042969-58.335938 130.042969-130.042969 0-71.703125-58.335938-130.042969-130.042969-130.042969zm0 0"/><path d="m47.785156 225.492188h-27.753906c-3.769531 0-6.824219-3.054688-6.824219-6.824219v-61.441407c0-3.769531 3.054688-6.828124 6.824219-6.828124h27.753906c3.773438 0 6.828125 3.058593 6.828125 6.828124v61.441407c0 3.769531-3.054687 6.824219-6.828125 6.824219zm-20.925781-13.652344h14.101563v-47.785156h-14.101563zm0 0"/><path d="m178.503906 254.105469c-4.867187 0-9.730468-1.523438-13.789062-4.566407l-7.839844-5.882812c-3.070312-2.296875-7.3125-2.476562-10.554688-.4375l-11.988281 7.535156c-1.597656 1.003906-3.523437 1.308594-5.34375.824219-1.820312-.46875-3.367187-1.667969-4.273437-3.316406-4.835938-8.800781-8.453125-18.375-10.753906-28.453125-.640626-2.828125.570312-5.753906 3.027343-7.296875l22.070313-13.863281c7.996094-5.027344 18.453125-4.589844 26.007812 1.074218l7.839844 5.882813c3.292969 2.464843 7.894531 2.464843 11.1875 0l5.515625-4.140625c9.089844-6.816406 22.007813-5.902344 30.035156 2.136718 3.269531 3.261719 8.511719 3.628907 12.1875.867188l5.515625-4.140625c8.121094-6.085937 19.457032-6.082031 27.566406.003906l7.035157 5.269531c3.292969 2.472657 7.894531 2.472657 11.1875 0l6.824219-5.117187c8.296874-6.210937 19.785156-6.097656 27.945312.289063l9.46875 7.414062c1.996094 1.558594 2.960938 4.089844 2.515625 6.578125-1.734375 9.679687-4.792969 19.128906-9.101563 28.089844-.894531 1.863281-2.585937 3.21875-4.601562 3.6875-2.023438.460937-4.132812-.003907-5.761719-1.269531l-.933593-.734376c-3.304688-2.589843-7.976563-2.640624-11.339844-.117187l-6.824219 5.117187c-8.117187 6.082032-19.449219 6.082032-27.570313 0l-7.035156-5.273437c-3.292968-2.46875-7.890625-2.472656-11.183594-.003906l-5.515624 4.140625c-9.097657 6.808594-22.011719 5.898437-30.035157-2.136719-3.261719-3.253906-8.496093-3.628906-12.1875-.863281l-5.515625 4.136718c-4.054687 3.042969-8.917968 4.566407-13.78125 4.566407zm-13.4375-21.367188 7.839844 5.878907c3.296875 2.464843 7.894531 2.464843 11.1875 0l5.515625-4.140626c9.089844-6.816406 22.007813-5.894531 30.035156 2.136719 3.269531 3.257813 8.511719 3.632813 12.1875.867188l5.515625-4.140625c8.125-6.085938 19.460938-6.082032 27.570313.003906l7.03125 5.269531c3.296875 2.472657 7.894531 2.472657 11.1875 0l6.824219-5.117187c6.261718-4.695313 14.335937-5.785156 21.445312-3.273438 1.765625-4.527344 3.1875-9.167968 4.238281-13.878906l-6.152343-4.816406c-3.308594-2.59375-7.976563-2.644532-11.339844-.121094l-6.824219 5.117188c-8.117187 6.085937-19.449219 6.082031-27.570313.003906l-7.035156-5.273438c-3.292968-2.46875-7.890625-2.472656-11.183594-.003906l-5.515624 4.140625c-9.097657 6.804687-22.011719 5.894531-30.035157-2.136719-3.261719-3.261718-8.496093-3.628906-12.1875-.867187l-5.515625 4.140625c-8.117187 6.085937-19.453125 6.078125-27.570312 0l-7.839844-5.882813c-3.066406-2.300781-7.308594-2.472656-10.554688-.4375l-17.863281 11.222657c1.324219 4.75 2.988281 9.351562 4.980469 13.757812l5.617188-3.527344c8.003906-5.03125 18.457031-4.59375 26.011718 1.078125zm0 0"/><path d="m49.746094 164.054688h-33.015625c-9.222657 0-16.730469-7.507813-16.730469-16.730469 0-9.898438 7.507812-17.402344 16.730469-17.402344h33.015625c9.222656 0 16.730468 7.503906 16.730468 16.730469 0 9.894531-7.507812 17.402344-16.730468 17.402344zm-33.015625-20.480469c-1.695313 0-3.078125 1.378906-3.078125 3.078125 0 2.367187 1.382812 3.746094 3.078125 3.746094h33.015625c1.699218 0 3.078125-1.378907 3.078125-3.074219 0-2.371094-1.378907-3.75-3.078125-3.75zm0 0"/><path d="m49.746094 245.972656h-33.015625c-9.222657 0-16.730469-7.503906-16.730469-16.730468v-1.007813c0-9.226563 7.507812-16.730469 16.730469-16.730469h33.015625c9.222656 0 16.730468 7.503906 16.730468 16.730469v1.007813c0 9.226562-7.507812 16.730468-16.730468 16.730468zm-33.015625-20.816406c-1.695313 0-3.078125 1.382812-3.078125 3.082031v1.007813c0 1.695312 1.382812 3.074218 3.078125 3.074218h33.015625c1.699218 0 3.078125-1.378906 3.078125-3.074218v-1.007813c0-1.699219-1.378907-3.082031-3.078125-3.082031zm0 0"/><path d="m120.613281 225.117188c-3.113281 0-5.925781-2.144532-6.648437-5.308594-1.886719-8.28125-2.84375-16.554688-2.84375-24.585938 0-60.816406 49.480468-110.296875 110.300781-110.296875 60.816406 0 110.296875 49.480469 110.296875 110.296875 0 6.300782-.597656 12.695313-1.828125 19.550782-.664063 3.707031-4.207031 6.1875-7.925781 5.511718-3.710938-.667968-6.179688-4.214844-5.511719-7.929687 1.085937-6.046875 1.613281-11.652344 1.613281-17.136719 0-53.289062-43.355468-96.640625-96.644531-96.640625-53.292969 0-96.648437 43.351563-96.648437 96.640625 0 7.019531.84375 14.269531 2.503906 21.554688.835937 3.675781-1.460938 7.335937-5.140625 8.171874-.507813.117188-1.019531.171876-1.523438.171876zm0 0"/><path d="m178.5 287.121094c-4.863281 0-9.726562-1.519532-13.785156-4.5625l-7.839844-5.886719c-2.035156-1.527344-4.636719-2.09375-7.335938-1.570313-2.21875.414063-4.511718-.28125-6.109374-1.882812-7.367188-7.371094-13.664063-15.769531-18.714844-24.957031-1.8125-3.304688-.609375-7.453125 2.699218-9.273438 3.308594-1.808593 7.457032-.605469 9.269532 2.699219 3.910156 7.117188 8.675781 13.691406 14.1875 19.585938 5.242187-.109376 10.136718 1.4375 14.191406 4.472656l7.84375 5.886718c3.292969 2.464844 7.894531 2.464844 11.1875 0l5.515625-4.140624c9.082031-6.820313 21.992187-5.894532 30.035156 2.136718 3.269531 3.257813 8.5 3.632813 12.1875.863282l5.515625-4.136719c8.113282-6.085938 19.449219-6.082031 27.566406-.003907l7.035157 5.28125c1.753906 1.3125 3.972656 1.976563 6.113281 1.8125 12.953125-9.398437 23.449219-21.988281 30.417969-36.503906 1.632812-3.402344 5.726562-4.824218 9.109375-3.199218 3.398437 1.628906 4.832031 5.710937 3.199218 9.105468-8.214843 17.113282-20.738281 31.886719-36.21875 42.726563-.777343.542969-1.667968.921875-2.597656 1.101562-6.390625 1.269531-13.042968-.238281-18.21875-4.125l-7.03125-5.277343c-3.292968-2.464844-7.886718-2.46875-11.1875.003906l-5.511718 4.136718c-9.078126 6.808594-21.996094 5.898438-30.035157-2.128906-3.253906-3.261718-8.496093-3.628906-12.191406-.871094l-5.511719 4.136719c-4.054687 3.046875-8.921875 4.570313-13.785156 4.570313zm0 0"/><path d="m221.417969 305.515625c-29.457031 0-57.152344-11.46875-77.984375-32.296875-2.667969-2.664062-2.667969-6.984375 0-9.652344 2.660156-2.664062 6.988281-2.664062 9.652344 0 18.253906 18.246094 42.523437 28.296875 68.332031 28.296875 19.871093 0 39.003906-6.039062 55.320312-17.472656 3.09375-2.160156 7.347657-1.410156 9.511719 1.675781 2.160156 3.089844 1.410156 7.347656-1.675781 9.511719-18.628907 13.042969-40.46875 19.9375-63.15625 19.9375zm0 0"/><path d="m232.105469 30.933594c0 5.65625-4.582031 10.238281-10.238281 10.238281s-10.242188-4.582031-10.242188-10.238281 4.585938-10.242188 10.242188-10.242188 10.238281 4.585938 10.238281 10.242188zm0 0"/><path d="m232.105469 358.613281c0 5.65625-4.582031 10.238281-10.238281 10.238281s-10.242188-4.582031-10.242188-10.238281 4.585938-10.238281 10.242188-10.238281 10.238281 4.582031 10.238281 10.238281zm0 0"/><path d="m395.945312 194.773438c0 5.65625-4.582031 10.238281-10.238281 10.238281s-10.242187-4.582031-10.242187-10.238281 4.585937-10.238282 10.242187-10.238282 10.238281 4.582032 10.238281 10.238282zm0 0"/><path d="m343.390625 305.175781c-3.941406-4.058593-10.421875-4.152343-14.480469-.210937-4.054687 3.941406-4.148437 10.425781-.210937 14.480468 3.941406 4.058594 10.425781 4.152344 14.480469.210938 4.058593-3.941406 4.152343-10.425781.210937-14.480469zm0 0"/><path d="m115.050781 70.132812c-3.941406-4.058593-10.421875-4.152343-14.480469-.210937-4.054687 3.941406-4.148437 10.425781-.207031 14.480469 3.9375 4.058594 10.421875 4.152344 14.476563.210937 4.058594-3.941406 4.152344-10.425781.210937-14.480469zm0 0"/><path d="m343.167969 69.894531c-4.054688-3.941406-10.539063-3.847656-14.480469.210938-3.9375 4.054687-3.84375 10.539062.210938 14.480469 4.058593 3.941406 10.539062 3.847656 14.480468-.210938 3.941406-4.054688 3.847656-10.539062-.210937-14.480469zm0 0"/><path d="m114.851562 304.933594c-4.054687-3.941406-10.539062-3.847656-14.480468.210937-3.941406 4.054688-3.847656 10.539063.210937 14.480469 4.054688 3.9375 10.539063 3.84375 14.480469-.210938 3.941406-4.058593 3.847656-10.539062-.210938-14.480468zm0 0"/></svg>