<svg xmlns="http://www.w3.org/2000/svg" xmlns:xlink="http://www.w3.org/1999/xlink" width="544.466" height="544.67" viewBox="0 0 544.466 544.67"><defs><style>.a{fill:#4bcdff;}.b{filter:url(#a);}</style><filter id="a" x="0" y="0" width="544.466" height="544.67" filterUnits="userSpaceOnUse"><feOffset dx="15" dy="15" input="SourceAlpha"/><feGaussianBlur stdDeviation="7.5" result="b"/><feFlood flood-color="#4bcdff" flood-opacity="0.302"/><feComposite operator="in" in2="b"/><feComposite in="SourceGraphic"/></filter></defs><g transform="translate(7.395 7.501)"><g class="b" transform="matrix(1, 0, 0, 1, -7.4, -7.5)"><path class="a" d="M494.948,484.528a138.016,138.016,0,0,1-16.794-9.794c-12.419-8.018-25.26-16.308-41.77-16.308-12.736,0-23.7,6.9-34.3,13.579-9.632,6.067-18.732,11.8-28.036,11.8-9.271,0-18.794-5.668-28.874-11.67-3.139-1.868-6.313-3.739-9.536-5.489a138.111,138.111,0,0,0,29.612-93.952,7.928,7.928,0,0,0-10.655-6.988,471.711,471.711,0,0,1-65.96,19.134l35.8-74.613a7.934,7.934,0,0,0-2.215-9.639q-4.2-3.339-8.495-6.714C265.074,255.535,205.738,208.7,155.144,60.316L215.31,31.909a5.288,5.288,0,0,0-2.258-10.069l-70.136.02c-1.556-5.256-3.1-10.59-4.639-16.069a7.93,7.93,0,0,0-15.516,1.242c-7.846,69.049-16.574,246.813,68.922,416.945-9.831,4.278-19.934,8.326-30.437,12.1a7.934,7.934,0,0,0-4.663,10.45,55.4,55.4,0,0,0,10.572,16.939,147.137,147.137,0,0,0-15.344,8.895c-9.228,5.883-17.945,11.439-26.765,11.439-8.987,0-18.029-5.689-27.6-11.712-10.678-6.718-21.719-13.667-34.459-13.667-16.47,0-29.239,8.3-41.592,16.321a136.854,136.854,0,0,1-16.685,9.789,7.931,7.931,0,0,0,6.653,14.4,151.092,151.092,0,0,0,18.674-10.889c10.893-7.077,21.18-13.76,32.951-13.76,8.164,0,16.834,5.455,26.011,11.231,11.053,6.954,22.484,14.147,36.047,14.147,13.446,0,24.554-7.078,35.293-13.925,9.239-5.889,17.967-11.454,26.816-11.454,8.918,0,17.818,5.614,27.239,11.557,10.772,6.8,21.909,13.821,35.093,13.821,13.333,0,24.229-7.421,33.843-13.969,8.612-5.867,16.747-11.41,25.53-11.41,8.929,0,18.291,5.574,28.2,11.477,11.483,6.834,23.355,13.9,36.991,13.9,13.883,0,25.894-7.565,36.492-14.24,9.093-5.729,17.683-11.138,25.84-11.138,11.836,0,22.2,6.689,33.166,13.77a152.416,152.416,0,0,0,18.776,10.885,7.93,7.93,0,1,0,6.618-14.413ZM189.455,32.422,151.772,50.214q-2.843-8.661-5.642-17.778ZM135.069,50.261c53.075,164.852,116.86,215.111,168.841,256.072l3.486,2.747-38.1,79.4c-4.44.725-8.884,1.394-13.339,1.978-.049.006-.092.026-.141.033a8.035,8.035,0,0,0-.823.193c-.242.063-.49.112-.721.2-.209.076-.408.187-.613.282a8.04,8.04,0,0,0-.814.409c-.04.024-.084.037-.123.062a432.257,432.257,0,0,1-46.61,25.774C136,278.247,130.481,133.547,135.069,50.261ZM274.394,472.588c-8.466,5.769-16.466,11.217-24.911,11.217-8.6,0-17.359-5.525-26.63-11.375-10.911-6.883-22.2-14-35.7-14-.629,0-1.227.089-1.846.119A42.025,42.025,0,0,1,175.05,447.9a464.138,464.138,0,0,0,84.71-41.956,463.24,463.24,0,0,0,89.815-21.6,122.358,122.358,0,0,1-29.149,75.832,42.133,42.133,0,0,0-11.568-1.745C295.185,458.426,284.139,465.951,274.394,472.588Z" transform="translate(7.4 7.5)"/></g><path class="a" d="M350.489,69.935a40.722,40.722,0,0,1,29.067,17.69,5.294,5.294,0,0,0,4.423,2.388,5.2,5.2,0,0,0,1.133-.124,5.284,5.284,0,0,0,4.1-4.383c3.224-21.6,14.193-38.942,34.514-54.59a5.286,5.286,0,1,0-6.448-8.379c-18.907,14.556-30.838,31.193-36.233,50.61A51.019,51.019,0,0,0,351.6,59.417a5.288,5.288,0,0,0-1.108,10.518Z"/><path class="a" d="M449.1,123.964a23.642,23.642,0,0,1,16.889,10.275,5.294,5.294,0,0,0,4.423,2.388,5.2,5.2,0,0,0,1.133-.124,5.284,5.284,0,0,0,4.1-4.384c1.953-13.075,8.627-23.607,21.013-33.142A5.289,5.289,0,0,0,490.2,90.6c-11.319,8.718-18.79,18.6-22.634,30.018a33.756,33.756,0,0,0-17.355-7.169,5.288,5.288,0,0,0-1.109,10.517Z"/></g></svg>