<svg xmlns="http://www.w3.org/2000/svg" xmlns:xlink="http://www.w3.org/1999/xlink" width="492.505" height="208.054" viewBox="0 0 492.505 208.054"><defs><style>.a{fill:#4bcdff;}.b{filter:url(#c);}.c{filter:url(#a);}</style><filter id="a" x="0.002" y="0" width="492.503" height="177.967" filterUnits="userSpaceOnUse"><feOffset dx="15" dy="15" input="SourceAlpha"/><feGaussianBlur stdDeviation="7.5" result="b"/><feFlood flood-color="#4bcdff" flood-opacity="0.302"/><feComposite operator="in" in2="b"/><feComposite in="SourceGraphic"/></filter><filter id="c" x="0" y="143.939" width="476.506" height="64.115" filterUnits="userSpaceOnUse"><feOffset dx="15" dy="15" input="SourceAlpha"/><feGaussianBlur stdDeviation="7.5" result="d"/><feFlood flood-color="#4bcdff" flood-opacity="0.302"/><feComposite operator="in" in2="d"/><feComposite in="SourceGraphic"/></filter></defs><g transform="translate(7.501 -134.725)"><g class="c" transform="matrix(1, 0, 0, 1, -7.5, 134.73)"><path class="a" d="M447.288,208.927a4,4,0,0,0-3.784-2.705H424.022l-8.807-12.916a4,4,0,0,0-3.3-1.747H295.4l-34.593-30.341a4,4,0,0,0-2.638-.993H189.7l-9.63-10H197.5a4,4,0,0,0,0-8h-48a4,4,0,0,0,0,8h19.464l9.63,10H104.167a4,4,0,0,0-3.99,3.715l-.666,9.333a4,4,0,0,0,3.6,4.265L142,181.373,131.77,191.558H73.243a4,4,0,0,0-3.6,2.247l-11.06,22.686H49.5a4,4,0,0,0-3.147,1.531l-14.8,18.869H20.833a4,4,0,0,0-3.66,5.613l9.778,22.173a16.7,16.7,0,0,1-20.216-1.962,4,4,0,0,0-5.469,5.839,24.708,24.708,0,0,0,33.7,0,16.69,16.69,0,0,1,22.765,0,24.708,24.708,0,0,0,33.7,0,16.694,16.694,0,0,1,22.766,0,24.708,24.708,0,0,0,33.7,0,16.69,16.69,0,0,1,22.765,0,24.708,24.708,0,0,0,33.7,0,16.69,16.69,0,0,1,22.765,0,24.543,24.543,0,0,0,16.871,6.624,31.273,31.273,0,0,0,8.108-1.379,24.426,24.426,0,0,0,8.723-5.245,16.694,16.694,0,0,1,22.766,0,24.679,24.679,0,0,0,22.418,6,26.958,26.958,0,0,0,6.207-2.367,24.4,24.4,0,0,0,5.077-3.635,16.69,16.69,0,0,1,22.765,0,24.487,24.487,0,0,0,3.641,2.812c.023.016.046.033.07.048a24.725,24.725,0,0,0,29.992-2.861,16.69,16.69,0,0,1,22.765,0,24.707,24.707,0,0,0,33.7,0,4,4,0,0,0-5.468-5.839,16.689,16.689,0,0,1-22.765,0,24.461,24.461,0,0,0-11.824-6.106l55.774-43.227A4,4,0,0,0,447.288,208.927ZM283.266,191.559H267.037l-20.653-23.333h10.278Zm-49.1,0-9.408-23.333H235.7l20.653,23.333H234.169Zm-8.626,0H193.417l10.051-23.333h12.667ZM154.6,176.882a4,4,0,0,0-3.375-2.637l-43.459-4.285.124-1.735h86.864l-10.051,23.333h-41.6l10.547-10.5A4,4,0,0,0,154.6,176.882Zm-78.86,22.677H409.8l4.543,6.663H355.5a4.042,4.042,0,0,0-1.1.153l-35.462,10.117H67.488ZM265.4,236.892v-12.4h16.5v12.4Zm-151.5-12.4v12.4H97.4v-12.4Zm8,0h16.5v12.4H121.9v-12.4Zm24.5,0h86.5v12.4H146.4Zm94.5,0h16.5v12.4H240.9v-12.4Zm-189.452,0H89.4v12.4H41.725ZM368.3,262.717a16.689,16.689,0,0,1-22.765,0,24.708,24.708,0,0,0-33.7,0,16.692,16.692,0,0,1-22.766,0,24.708,24.708,0,0,0-33.7,0,16.689,16.689,0,0,1-22.765,0,24.708,24.708,0,0,0-33.7,0,16.689,16.689,0,0,1-22.765,0,24.708,24.708,0,0,0-33.7,0,16.689,16.689,0,0,1-22.765,0,24.709,24.709,0,0,0-33.7,0,16.689,16.689,0,0,1-22.765,0,24.72,24.72,0,0,0-29.708-3.028l-6.525-14.8H392.239l-17.317,13.421A24.462,24.462,0,0,0,368.3,262.717Zm34.261-25.825H289.9v-12.4h29.6a4.042,4.042,0,0,0,1.1-.153l35.462-10.117h75.75Z" transform="translate(7.5 -134.73)"/></g><g class="b" transform="matrix(1, 0, 0, 1, -7.5, 134.73)"><path class="a" d="M424.769,292.8a16.691,16.691,0,0,1-22.765,0,24.708,24.708,0,0,0-33.7,0,16.691,16.691,0,0,1-22.765,0,24.708,24.708,0,0,0-33.7,0,16.692,16.692,0,0,1-22.766,0,24.708,24.708,0,0,0-33.7,0,16.691,16.691,0,0,1-22.765,0,24.708,24.708,0,0,0-33.7,0,16.691,16.691,0,0,1-22.765,0,24.707,24.707,0,0,0-33.7,0,16.691,16.691,0,0,1-22.765,0,24.709,24.709,0,0,0-33.7,0,16.691,16.691,0,0,1-22.765,0,24.708,24.708,0,0,0-33.7,0,16.691,16.691,0,0,1-22.765,0,4,4,0,1,0-5.468,5.839,24.708,24.708,0,0,0,33.7,0,16.691,16.691,0,0,1,22.765,0,24.707,24.707,0,0,0,33.7,0,16.692,16.692,0,0,1,22.766,0,24.708,24.708,0,0,0,33.7,0,16.691,16.691,0,0,1,22.765,0,24.707,24.707,0,0,0,33.7,0,16.691,16.691,0,0,1,22.765,0,24.707,24.707,0,0,0,33.7,0,16.692,16.692,0,0,1,22.766,0,24.708,24.708,0,0,0,33.7,0,16.691,16.691,0,0,1,22.765,0,24.707,24.707,0,0,0,33.7,0,16.691,16.691,0,0,1,22.765,0,24.709,24.709,0,0,0,33.7,0,4,4,0,1,0-5.47-5.839Z" transform="translate(7.5 -134.73)"/></g></g></svg>