<svg xmlns="http://www.w3.org/2000/svg" xmlns:xlink="http://www.w3.org/1999/xlink" width="492.505" height="208.054" viewBox="0 0 492.505 208.054"><defs><style>.a{fill:#4bcdff;}.b{filter:url(#c);}.c{filter:url(#a);}</style><filter id="a" x="0" y="0" width="492.503" height="177.967" filterUnits="userSpaceOnUse"><feOffset dx="15" dy="15" input="SourceAlpha"/><feGaussianBlur stdDeviation="7.5" result="b"/><feFlood flood-color="#4bcdff" flood-opacity="0.302"/><feComposite operator="in" in2="b"/><feComposite in="SourceGraphic"/></filter><filter id="c" x="16" y="143.939" width="476.506" height="64.115" filterUnits="userSpaceOnUse"><feOffset dx="15" dy="15" input="SourceAlpha"/><feGaussianBlur stdDeviation="7.5" result="d"/><feFlood flood-color="#4bcdff" flood-opacity="0.302"/><feComposite operator="in" in2="d"/><feComposite in="SourceGraphic"/></filter></defs><g transform="translate(7.5 7.5)"><g class="c" transform="matrix(1, 0, 0, 1, -7.5, -7.5)"><path class="a" d="M.217,208.927A4,4,0,0,1,4,206.222H23.483l8.807-12.916a4,4,0,0,1,3.3-1.747H152.106L186.7,161.218a4,4,0,0,1,2.638-.993H257.8l9.63-10H250a4,4,0,0,1,0-8h48a4,4,0,0,1,0,8H278.539l-9.63,10h74.429a4,4,0,0,1,3.99,3.715l.666,9.333a4,4,0,0,1-3.6,4.265L305.5,181.373l10.232,10.185h58.527a4,4,0,0,1,3.6,2.247l11.06,22.686H398a4,4,0,0,1,3.147,1.531l14.8,18.869h10.724a4,4,0,0,1,3.66,5.613l-9.778,22.173a16.7,16.7,0,0,0,20.216-1.962,4,4,0,0,1,5.469,5.839,24.708,24.708,0,0,1-33.7,0,16.69,16.69,0,0,0-22.765,0,24.708,24.708,0,0,1-33.7,0,16.694,16.694,0,0,0-22.766,0,24.708,24.708,0,0,1-33.7,0,16.69,16.69,0,0,0-22.765,0,24.708,24.708,0,0,1-33.7,0,16.69,16.69,0,0,0-22.765,0,24.543,24.543,0,0,1-16.871,6.624,31.273,31.273,0,0,1-8.108-1.379,24.426,24.426,0,0,1-8.723-5.245,16.694,16.694,0,0,0-22.766,0,24.679,24.679,0,0,1-22.418,6,26.958,26.958,0,0,1-6.207-2.367,24.4,24.4,0,0,1-5.077-3.635,16.69,16.69,0,0,0-22.765,0,24.487,24.487,0,0,1-3.641,2.812c-.023.016-.046.033-.07.048a24.725,24.725,0,0,1-29.992-2.861,16.69,16.69,0,0,0-22.765,0,24.707,24.707,0,0,1-33.7,0,4,4,0,0,1,5.468-5.839,16.689,16.689,0,0,0,22.765,0,24.461,24.461,0,0,1,11.824-6.106L1.548,213.381A4,4,0,0,1,.217,208.927Zm164.022-17.368h16.229l20.653-23.333H190.843Zm49.1,0,9.408-23.333H211.8l-20.653,23.333h22.185Zm8.626,0h32.126l-10.051-23.333H231.37Zm70.94-14.677a4,4,0,0,1,3.375-2.637l43.459-4.285-.124-1.735H252.748L262.8,191.558h41.6l-10.547-10.5A4,4,0,0,1,292.9,176.882Zm78.86,22.677H37.709l-4.543,6.663H92a4.042,4.042,0,0,1,1.1.153l35.462,10.117H380.017ZM182.1,236.892v-12.4H165.6v12.4Zm151.5-12.4v12.4h16.5v-12.4Zm-8,0H309.1v12.4h16.5Zm-24.5,0H214.6v12.4h86.5Zm-94.5,0H190.1v12.4h16.5v-12.4Zm189.452,0H358.1v12.4H405.78ZM79.2,262.717a16.689,16.689,0,0,0,22.765,0,24.708,24.708,0,0,1,33.7,0,16.692,16.692,0,0,0,22.766,0,24.708,24.708,0,0,1,33.7,0,16.689,16.689,0,0,0,22.765,0,24.708,24.708,0,0,1,33.7,0,16.689,16.689,0,0,0,22.765,0,24.708,24.708,0,0,1,33.7,0,16.689,16.689,0,0,0,22.765,0,24.709,24.709,0,0,1,33.7,0,16.689,16.689,0,0,0,22.765,0,24.72,24.72,0,0,1,29.708-3.028l6.525-14.8H55.266l17.317,13.421A24.462,24.462,0,0,1,79.2,262.717ZM44.942,236.892H157.6v-12.4H128a4.042,4.042,0,0,1-1.1-.153L91.441,214.222H15.691Z" transform="translate(7.5 -134.73)"/></g><g class="b" transform="matrix(1, 0, 0, 1, -7.5, -7.5)"><path class="a" d="M6.734,292.8a16.691,16.691,0,0,0,22.765,0,24.708,24.708,0,0,1,33.7,0,16.691,16.691,0,0,0,22.765,0,24.708,24.708,0,0,1,33.7,0,16.692,16.692,0,0,0,22.766,0,24.708,24.708,0,0,1,33.7,0,16.691,16.691,0,0,0,22.765,0,24.708,24.708,0,0,1,33.7,0,16.691,16.691,0,0,0,22.765,0,24.707,24.707,0,0,1,33.7,0,16.691,16.691,0,0,0,22.765,0,24.709,24.709,0,0,1,33.7,0,16.691,16.691,0,0,0,22.765,0,24.708,24.708,0,0,1,33.7,0,16.691,16.691,0,0,0,22.765,0,4,4,0,1,1,5.468,5.839,24.708,24.708,0,0,1-33.7,0,16.691,16.691,0,0,0-22.765,0,24.707,24.707,0,0,1-33.7,0,16.692,16.692,0,0,0-22.766,0,24.708,24.708,0,0,1-33.7,0,16.691,16.691,0,0,0-22.765,0,24.707,24.707,0,0,1-33.7,0,16.691,16.691,0,0,0-22.765,0,24.707,24.707,0,0,1-33.7,0,16.692,16.692,0,0,0-22.766,0,24.708,24.708,0,0,1-33.7,0,16.691,16.691,0,0,0-22.765,0,24.707,24.707,0,0,1-33.7,0,16.691,16.691,0,0,0-22.765,0,24.709,24.709,0,0,1-33.7,0,4,4,0,1,1,5.47-5.839Z" transform="translate(23.5 -134.73)"/></g></g></svg>