<svg xmlns="http://www.w3.org/2000/svg" width="29.929" height="24.495" viewBox="0 0 29.929 24.495"><defs><style>.a{fill:#4bcdff;}</style></defs><path class="a" d="M11.166,24.5A25.68,25.68,0,0,1,7.2,24.18a18.615,18.615,0,0,1-5.426-1.975L0,21.236,1.92,20.6c2.1-.69,3.375-1.118,4.956-1.789A6.593,6.593,0,0,1,3.487,14.89L3.04,13.534l.366.056a6.66,6.66,0,0,1-.834-1.028A6.314,6.314,0,0,1,1.5,8.807l.084-1.183.709.274a6.624,6.624,0,0,1-.642-1.8A6.846,6.846,0,0,1,2.381,1.49L3,.357l.825.991a15.192,15.192,0,0,0,9.842,5.541,5.886,5.886,0,0,1,.357-3.127A5.855,5.855,0,0,1,16.4,1.033,7.15,7.15,0,0,1,20.553.014a6.628,6.628,0,0,1,4.074,1.68,13.677,13.677,0,0,0,1.491-.5c.327-.123.7-.263,1.162-.423L28.99.185,27.875,3.369c.074-.006.149-.011.229-.015l1.826-.083L28.85,4.746c-.062.084-.078.108-.1.142-.087.131-.2.294-1.676,2.272a2.79,2.79,0,0,0-.522,1.817,17.183,17.183,0,0,1-.938,6.911,12.23,12.23,0,0,1-3.283,4.863,14.5,14.5,0,0,1-6.873,3.323,21.159,21.159,0,0,1-4.293.421Zm0,0" transform="translate(0 0)"/></svg>