<svg xmlns="http://www.w3.org/2000/svg" width="13.809" height="225.974" viewBox="0 0 13.809 225.974"><defs><style>.a{fill:#fff;}</style></defs><g transform="translate(-157.109 -2518.917)"><path class="a" d="M3.8,87.017a21.648,21.648,0,0,0,12.244-3.8c.445-.3.881-.624,1.3-.963.423.339.859.658,1.3.963a21.643,21.643,0,0,0,24.487,0c.445-.3.881-.624,1.3-.963.423.339.859.658,1.3.963a21.643,21.643,0,0,0,24.487,0c.445-.3.881-.624,1.3-.963.423.339.859.658,1.3.963a21.643,21.643,0,0,0,24.487,0c.445-.3.881-.624,1.3-.963.423.339.859.658,1.3.963a21.648,21.648,0,0,0,12.244,3.8,3.8,3.8,0,0,0,0-7.592,14.086,14.086,0,0,1-10.673-4.9,3.8,3.8,0,0,0-5.75,0,14.077,14.077,0,0,1-21.346,0,3.8,3.8,0,0,0-5.75,0,14.077,14.077,0,0,1-21.345,0,3.8,3.8,0,0,0-5.75,0,14.077,14.077,0,0,1-21.346,0,3.8,3.8,0,0,0-5.75,0A14.086,14.086,0,0,1,3.8,79.425a3.8,3.8,0,1,0,0,7.592Z" transform="translate(83.9 2744.891) rotate(-90)"/><path class="a" d="M3.8,87.017a21.648,21.648,0,0,0,12.244-3.8c.445-.3.881-.624,1.3-.963.423.339.859.658,1.3.963a21.643,21.643,0,0,0,24.487,0c.445-.3.881-.624,1.3-.963.423.339.859.658,1.3.963a21.643,21.643,0,0,0,24.487,0c.445-.3.881-.624,1.3-.963.423.339.859.658,1.3.963a21.643,21.643,0,0,0,24.487,0c.445-.3.881-.624,1.3-.963.423.339.859.658,1.3.963a21.648,21.648,0,0,0,12.244,3.8,3.8,3.8,0,0,0,0-7.592,14.086,14.086,0,0,1-10.673-4.9,3.8,3.8,0,0,0-5.75,0,14.077,14.077,0,0,1-21.346,0,3.8,3.8,0,0,0-5.75,0,14.077,14.077,0,0,1-21.345,0,3.8,3.8,0,0,0-5.75,0,14.077,14.077,0,0,1-21.346,0,3.8,3.8,0,0,0-5.75,0A14.086,14.086,0,0,1,3.8,79.425a3.8,3.8,0,1,0,0,7.592Z" transform="translate(83.9 2634.891) rotate(-90)"/></g></svg>