<svg xmlns="http://www.w3.org/2000/svg" width="926.964" height="32.738" viewBox="0 0 926.964 32.738"><defs><style>.a{opacity:0.36;}.b{fill:#4bcdff;}</style></defs><g class="a" transform="translate(284.904 163.738) rotate(-90)"><path class="b" d="M265.963,183.754a33.4,33.4,0,0,1-25.3-11.614,9,9,0,0,0-13.632,0,33.375,33.375,0,0,1-50.609,0,9,9,0,0,0-13.632,0,33.374,33.374,0,0,1-50.608,0,9,9,0,0,0-13.632,0,33.375,33.375,0,0,1-50.609,0,9,9,0,0,0-13.632,0A33.39,33.39,0,0,1,9,183.754a9,9,0,0,0,0,18,51.325,51.325,0,0,0,29.029-9c1.055-.723,2.09-1.48,3.092-2.283,1,.8,2.037,1.56,3.092,2.283a51.314,51.314,0,0,0,58.057,0c1.055-.723,2.09-1.48,3.092-2.283,1,.8,2.037,1.56,3.092,2.283a51.312,51.312,0,0,0,58.056,0c1.055-.723,2.089-1.48,3.092-2.283,1,.8,2.037,1.56,3.092,2.283a51.314,51.314,0,0,0,58.057,0c1.055-.723,2.089-1.48,3.092-2.283,1,.8,2.037,1.56,3.092,2.283a51.323,51.323,0,0,0,29.029,9,9,9,0,1,0,0-18Z" transform="translate(332.754 238.903) rotate(90)"/><path class="b" d="M265.963,135.851a33.4,33.4,0,0,1-25.3-11.614,9,9,0,0,0-13.632,0,33.375,33.375,0,0,1-50.609,0,9,9,0,0,0-13.632,0,33.374,33.374,0,0,1-50.608,0,9,9,0,0,0-13.632,0,33.375,33.375,0,0,1-50.609,0,9,9,0,0,0-13.632,0A33.394,33.394,0,0,1,9,135.851a9,9,0,0,0,0,18,51.325,51.325,0,0,0,29.029-9c1.055-.723,2.089-1.48,3.092-2.283,1,.8,2.037,1.56,3.092,2.283a51.314,51.314,0,0,0,58.057,0c1.055-.723,2.089-1.48,3.092-2.283,1,.8,2.037,1.56,3.092,2.283a51.312,51.312,0,0,0,58.056,0c1.055-.723,2.089-1.48,3.092-2.283,1,.8,2.037,1.56,3.092,2.283a51.314,51.314,0,0,0,58.057,0c1.055-.723,2.089-1.48,3.092-2.283,1,.8,2.037,1.56,3.092,2.283a51.325,51.325,0,0,0,29.029,9,9,9,0,1,0,0-18Z" transform="translate(284.851 -24) rotate(90)"/><path class="b" d="M9,105.947a51.325,51.325,0,0,0,29.029-9c1.055-.723,2.089-1.48,3.092-2.283,1,.8,2.037,1.56,3.092,2.283a51.314,51.314,0,0,0,58.057,0c1.055-.723,2.089-1.48,3.092-2.283,1,.8,2.037,1.56,3.092,2.283a51.312,51.312,0,0,0,58.056,0c1.055-.723,2.089-1.48,3.092-2.283,1,.8,2.037,1.56,3.092,2.283a51.314,51.314,0,0,0,58.057,0c1.055-.723,2.089-1.48,3.092-2.283,1,.8,2.037,1.56,3.092,2.283a51.325,51.325,0,0,0,29.029,9,9,9,0,0,0,0-18,33.4,33.4,0,0,1-25.3-11.614,9,9,0,0,0-13.632,0,33.375,33.375,0,0,1-50.609,0,9,9,0,0,0-13.632,0,33.374,33.374,0,0,1-50.608,0,9,9,0,0,0-13.632,0,33.376,33.376,0,0,1-50.609,0,9,9,0,0,0-13.632,0A33.4,33.4,0,0,1,9,87.947a9,9,0,0,0,0,18Z" transform="translate(236.947 -284.904) rotate(90)"/><path class="b" d="M9,105.947a51.325,51.325,0,0,0,29.029-9c1.055-.723,2.089-1.48,3.092-2.283,1,.8,2.037,1.56,3.092,2.283a51.314,51.314,0,0,0,58.057,0c1.055-.723,2.089-1.48,3.092-2.283,1,.8,2.037,1.56,3.092,2.283a51.312,51.312,0,0,0,58.056,0c1.055-.723,2.089-1.48,3.092-2.283,1,.8,2.037,1.56,3.092,2.283a51.314,51.314,0,0,0,58.057,0c1.055-.723,2.089-1.48,3.092-2.283,1,.8,2.037,1.56,3.092,2.283a51.325,51.325,0,0,0,29.029,9,9,9,0,0,0,0-18,33.4,33.4,0,0,1-25.3-11.614,9,9,0,0,0-13.632,0,33.375,33.375,0,0,1-50.609,0,9,9,0,0,0-13.632,0,33.374,33.374,0,0,1-50.608,0,9,9,0,0,0-13.632,0,33.376,33.376,0,0,1-50.609,0,9,9,0,0,0-13.632,0A33.4,33.4,0,0,1,9,87.947a9,9,0,0,0,0,18Z" transform="translate(236.947 367.096) rotate(90)"/></g></svg>