<svg xmlns="http://www.w3.org/2000/svg" xmlns:xlink="http://www.w3.org/1999/xlink" width="133.974" height="47.013" viewBox="0 0 133.974 47.013"><defs><style>.a{fill:#fff;}.b{filter:url(#c);}.c{filter:url(#a);}</style><filter id="a" x="0" y="20.205" width="133.974" height="26.808" filterUnits="userSpaceOnUse"><feOffset dx="15" dy="10" input="SourceAlpha"/><feGaussianBlur stdDeviation="1" result="b"/><feFlood flood-color="#fff" flood-opacity="0.38"/><feComposite operator="in" in2="b"/><feComposite in="SourceGraphic"/></filter><filter id="c" x="0" y="0" width="133.974" height="26.808" filterUnits="userSpaceOnUse"><feOffset dx="15" dy="10" input="SourceAlpha"/><feGaussianBlur stdDeviation="1" result="d"/><feFlood flood-color="#fff" flood-opacity="0.38"/><feComposite operator="in" in2="d"/><feComposite in="SourceGraphic"/></filter></defs><g transform="translate(0)"><g class="c" transform="matrix(1, 0, 0, 1, 0, 0)"><path class="a" d="M112.177,127.329a14.086,14.086,0,0,1-10.673-4.9,3.8,3.8,0,0,0-5.75,0,14.077,14.077,0,0,1-21.346,0,3.8,3.8,0,0,0-5.75,0,14.077,14.077,0,0,1-21.345,0,3.8,3.8,0,0,0-5.75,0,14.077,14.077,0,0,1-21.346,0,3.8,3.8,0,0,0-5.75,0,14.085,14.085,0,0,1-10.673,4.9,3.8,3.8,0,1,0,0,7.592,21.648,21.648,0,0,0,12.244-3.8c.445-.3.881-.624,1.3-.963.423.339.859.658,1.3.963a21.643,21.643,0,0,0,24.487,0c.445-.3.881-.624,1.3-.963.423.339.859.658,1.3.963a21.643,21.643,0,0,0,24.487,0c.445-.3.881-.624,1.3-.963.423.339.859.658,1.3.963a21.643,21.643,0,0,0,24.487,0c.445-.3.881-.624,1.3-.963.423.339.859.658,1.3.963a21.648,21.648,0,0,0,12.244,3.8,3.8,3.8,0,1,0,0-7.592Z" transform="translate(0 -100.91)"/></g><g class="b" transform="matrix(1, 0, 0, 1, 0, 0)"><path class="a" d="M3.8,87.017a21.648,21.648,0,0,0,12.244-3.8c.445-.3.881-.624,1.3-.963.423.339.859.658,1.3.963a21.643,21.643,0,0,0,24.487,0c.445-.3.881-.624,1.3-.963.423.339.859.658,1.3.963a21.643,21.643,0,0,0,24.487,0c.445-.3.881-.624,1.3-.963.423.339.859.658,1.3.963a21.643,21.643,0,0,0,24.487,0c.445-.3.881-.624,1.3-.963.423.339.859.658,1.3.963a21.648,21.648,0,0,0,12.244,3.8,3.8,3.8,0,0,0,0-7.592,14.086,14.086,0,0,1-10.673-4.9,3.8,3.8,0,0,0-5.75,0,14.077,14.077,0,0,1-21.346,0,3.8,3.8,0,0,0-5.75,0,14.077,14.077,0,0,1-21.345,0,3.8,3.8,0,0,0-5.75,0,14.077,14.077,0,0,1-21.346,0,3.8,3.8,0,0,0-5.75,0A14.086,14.086,0,0,1,3.8,79.425a3.8,3.8,0,1,0,0,7.592Z" transform="translate(0 -73.21)"/></g></g></svg>