<svg xmlns="http://www.w3.org/2000/svg" width="29.929" height="21.063" viewBox="0 0 29.929 21.063"><defs><style>.a{fill:#4bcdff;}</style></defs><path class="a" d="M28.762,47.725c-1.08-1.284-3.075-1.808-6.884-1.808H8.05c-3.9,0-5.925.558-7,1.925C0,49.175,0,51.139,0,53.858v5.181c0,5.267,1.245,7.941,8.05,7.941H21.878c3.3,0,5.134-.462,6.318-1.6,1.214-1.162,1.733-3.06,1.733-6.345V53.858C29.929,50.991,29.848,49.015,28.762,47.725Zm-9.548,9.439-6.279,3.282a.965.965,0,0,1-1.413-.856V53.047a.965.965,0,0,1,1.41-.857l6.279,3.26a.965.965,0,0,1,0,1.712Z" transform="translate(0 -45.917)"/></svg>