<svg xmlns="http://www.w3.org/2000/svg" width="85" height="85" viewBox="0 0 85 85"><g transform="translate(-0.001)"><path d="M10.626,13.282V2.656a2.656,2.656,0,0,1,5.313,0V13.282a2.656,2.656,0,0,1-5.313,0Zm45.157,2.656a2.655,2.655,0,0,0,2.656-2.656V2.656a2.657,2.657,0,0,0-5.313,0V13.282A2.655,2.655,0,0,0,55.783,15.938ZM85,63.75A21.25,21.25,0,1,1,63.751,42.5,21.251,21.251,0,0,1,85,63.75Zm-5.312,0A15.938,15.938,0,1,0,63.751,79.688,15.956,15.956,0,0,0,79.689,63.75ZM21.251,31.875H10.626V42.5H21.251ZM10.626,58.438H21.251V47.812H10.626ZM26.563,42.5H37.189V31.875H26.563Zm0,15.938H37.189V47.812H26.563ZM5.314,63.221V26.562H63.751V37.188h5.313V16.467a5.8,5.8,0,0,0-5.753-5.842H61.095v2.657a5.312,5.312,0,1,1-10.624,0V10.625H18.595v2.657a5.312,5.312,0,1,1-10.625,0V10.625H5.757A5.8,5.8,0,0,0,0,16.467V63.222a5.805,5.805,0,0,0,5.756,5.842H37.189V63.75H5.757A.5.5,0,0,1,5.314,63.221ZM53.126,42.5V31.875H42.5V42.5ZM71.72,63.75H63.751V55.781a2.656,2.656,0,0,0-5.312,0V66.407a2.654,2.654,0,0,0,2.656,2.656H71.72a2.657,2.657,0,0,0,0-5.313Z"/></g></svg>