<svg xmlns="http://www.w3.org/2000/svg" width="104" height="106.872" viewBox="0 0 104 106.872"><defs><style>.a{fill:#dc3030;stroke:#fff;stroke-width:4px;}</style></defs><g transform="translate(108.676 104.872) rotate(180)"><path class="a" d="M103.674,69.936a12.779,12.779,0,0,0,2.99-8.54,13.12,13.12,0,0,0-2.8-7.4c1.4-3.485,1.936-8.971-2.732-13.23-3.42-3.119-9.229-4.518-17.274-4.13a67.511,67.511,0,0,0-10.584,1.355h-.022c-1.076.194-2.216.43-3.377.688-.086-1.377.151-4.8,2.689-12.5,3.012-9.164,2.84-16.177-.559-20.867C68.437.387,62.736,0,61.058,0a5.4,5.4,0,0,0-4.152,1.893C54.518,4.668,54.8,9.788,55.1,12.154c-2.84,7.615-10.8,26.288-17.532,31.472a2.3,2.3,0,0,0-.344.3,23.109,23.109,0,0,0-4.216,6.325,8.877,8.877,0,0,0-4.259-1.076H15.624a8.956,8.956,0,0,0-8.949,8.949V93.084a8.956,8.956,0,0,0,8.949,8.949H28.747a8.931,8.931,0,0,0,5.163-1.635l5.055.6a216.593,216.593,0,0,0,28.676,1.57c2.56.194,4.969.3,7.207.3a48.266,48.266,0,0,0,10-.9c6.583-1.4,11.079-4.195,13.359-8.3a13.167,13.167,0,0,0,1.463-8.239,13.722,13.722,0,0,0,4.883-11.165A14.532,14.532,0,0,0,103.674,69.936ZM15.624,96.224a3.144,3.144,0,0,1-3.141-3.141V58.1a3.144,3.144,0,0,1,3.141-3.141H28.747A3.144,3.144,0,0,1,31.887,58.1V93.062A3.144,3.144,0,0,1,28.747,96.2H15.624Zm82.543-28.8a2.891,2.891,0,0,0-.387,3.506,8.951,8.951,0,0,1,.99,3.593c.151,2.818-1.2,5.314-4.044,7.443a2.931,2.931,0,0,0-.99,3.313,7.6,7.6,0,0,1-.581,5.55c-1.441,2.581-4.647,4.432-9.508,5.464-3.894.839-9.186.99-15.682.473h-.3A212.339,212.339,0,0,1,39.7,95.235h-.022L37.5,94.977a9.114,9.114,0,0,0,.194-1.893V58.1a9.1,9.1,0,0,0-.409-2.668,17.98,17.98,0,0,1,4-7.379C50.947,40.4,60.391,14.564,60.8,13.445A2.724,2.724,0,0,0,60.929,12c-.366-2.409-.237-5.357.28-6.239a7.718,7.718,0,0,1,6.066,2.9c2.194,3.033,2.108,8.454-.258,15.639C63.4,35.259,63.1,41.024,65.963,43.562a4.689,4.689,0,0,0,4.69.839c1.312-.3,2.56-.559,3.743-.753.086-.022.194-.043.28-.065,6.6-1.441,18.436-2.323,22.545,1.42,3.485,3.184,1.011,7.4.731,7.852a2.877,2.877,0,0,0,.516,3.743,8.149,8.149,0,0,1,2.388,5.012C100.942,63.526,100.038,65.483,98.167,67.419Z" transform="translate(0 0)"/></g></svg>