<svg xmlns="http://www.w3.org/2000/svg" width="31.741" height="31.741" viewBox="0 0 31.741 31.741"><defs><style>.a{fill:#fff;}</style></defs><path class="a" d="M27.092,0H4.65A4.655,4.655,0,0,0,0,4.65V27.092a4.655,4.655,0,0,0,4.65,4.65H27.092a4.655,4.655,0,0,0,4.65-4.65V4.65A4.655,4.655,0,0,0,27.092,0ZM15.933,24.178A8.369,8.369,0,1,1,24.3,15.809,8.379,8.379,0,0,1,15.933,24.178ZM25.232,9.3a2.79,2.79,0,1,1,2.79-2.79A2.793,2.793,0,0,1,25.232,9.3Zm0,0"/><path class="a" d="M392.93,90a.93.93,0,1,0,.93.93A.93.93,0,0,0,392.93,90Zm0,0" transform="translate(-367.698 -84.42)"/><path class="a" d="M158.509,150a6.509,6.509,0,1,0,6.509,6.509A6.517,6.517,0,0,0,158.509,150Zm0,0" transform="translate(-142.577 -140.701)"/></svg>