<svg xmlns="http://www.w3.org/2000/svg" width="31.68" height="31.679" viewBox="0 0 31.68 31.679"><defs><style>.a{fill:#fff;}</style></defs><path class="a" d="M-22.82,31.679H-45.5a4.505,4.505,0,0,1-4.5-4.5V4.5A4.505,4.505,0,0,1-45.5,0h22.68a4.505,4.505,0,0,1,4.5,4.5V27.179A4.505,4.505,0,0,1-22.82,31.679Zm-19.4-14.958.3.914a4.446,4.446,0,0,0,2.285,2.649c-1.074.455-1.927.741-3.342,1.206l-1.3.426,1.2.654A12.557,12.557,0,0,0-39.41,23.9a17.265,17.265,0,0,0,2.675.212,14.269,14.269,0,0,0,2.9-.284A9.784,9.784,0,0,0-29.2,21.589a8.247,8.247,0,0,0,2.214-3.28,11.59,11.59,0,0,0,.633-4.661,1.879,1.879,0,0,1,.352-1.225c1-1.335,1.072-1.444,1.13-1.532l.008-.012c.012-.018.025-.037.059-.083l.727-1-1.231.056-.154.01.751-2.147-1.153.4c-.291.1-.527.188-.735.266l-.048.018a9.145,9.145,0,0,1-1.006.336A4.477,4.477,0,0,0-30.4,7.6c-.1-.006-.2-.009-.3-.009a4.835,4.835,0,0,0-2.5.7,3.949,3.949,0,0,0-1.606,1.84,3.943,3.943,0,0,0-.241,2.109A10.251,10.251,0,0,1-41.687,8.5l-.556-.669-.417.764a4.618,4.618,0,0,0-.491,3.109,4.467,4.467,0,0,0,.433,1.213l-.478-.184-.057.8a4.262,4.262,0,0,0,.722,2.532,4.541,4.541,0,0,0,.563.693l-.247-.038Z" transform="translate(50)"/></svg>