<svg xmlns="http://www.w3.org/2000/svg" width="50" height="50" viewBox="0 0 50 50"><path d="M24.825,29.8a4.962,4.962,0,1,0-4.968-4.971A4.978,4.978,0,0,0,24.825,29.8Z" transform="translate(0.174 0.174)"/><path d="M35.678,18.746V13.96l-.623,0-4.164.013.016,4.787Z" transform="translate(0.24 0.108)"/><path d="M25,0A25,25,0,1,0,50,25,25.028,25.028,0,0,0,25,0ZM39.218,22.083V33.724a5.5,5.5,0,0,1-5.5,5.5H16.277a5.5,5.5,0,0,1-5.5-5.5V16.278a5.5,5.5,0,0,1,5.5-5.5H33.722a5.5,5.5,0,0,1,5.5,5.5Z"/><path d="M32.549,24.826a7.723,7.723,0,1,1-14.877-2.9H13.457v11.56a2.706,2.706,0,0,0,2.706,2.7H33.486a2.707,2.707,0,0,0,2.706-2.7V21.929H31.975A7.617,7.617,0,0,1,32.549,24.826Z" transform="translate(0.174 0.216)"/></svg>