<svg xmlns="http://www.w3.org/2000/svg" width="19.209" height="32.928" viewBox="0 0 19.209 32.928"><defs><style>.a{fill:#ff3a3a;}</style></defs><path class="a" d="M9.215,32.928h0c-.023-.045-2.343-4.594-4.607-9.672-1.338-3-2.4-5.614-3.168-7.769A20.458,20.458,0,0,1,0,9.6,9.607,9.607,0,0,1,18.454,5.866,9.544,9.544,0,0,1,19.209,9.6a19.138,19.138,0,0,1-1.562,5.882c-.829,2.155-1.985,4.768-3.436,7.769-2.459,5.087-4.972,9.627-5,9.672ZM9.6,4.9a3.2,3.2,0,1,0,3.2,3.2A3.205,3.205,0,0,0,9.6,4.9Z" transform="translate(0)"/></svg>