<svg xmlns="http://www.w3.org/2000/svg" width="35" height="35.001" viewBox="0 0 35 35.001"><defs><style>.a{fill:#4dc200;}</style></defs><g transform="translate(-0.006)"><g transform="translate(0.006)"><path class="a" d="M26.683,65.981a2.459,2.459,0,0,0-3.717,0c-.869.862-1.738,1.723-2.592,2.6a.512.512,0,0,1-.716.131c-.562-.307-1.161-.555-1.7-.891a26.957,26.957,0,0,1-6.5-5.915,15.4,15.4,0,0,1-2.329-3.731.535.535,0,0,1,.131-.686c.869-.84,1.716-1.7,2.57-2.563a2.468,2.468,0,0,0-.007-3.8c-.679-.686-1.358-1.358-2.037-2.045-.7-.7-1.395-1.409-2.1-2.1a2.474,2.474,0,0,0-3.717.007c-.876.862-1.716,1.745-2.607,2.592A4.231,4.231,0,0,0,.031,52.429a12.1,12.1,0,0,0,.935,5.206,31.636,31.636,0,0,0,5.615,9.354,34.748,34.748,0,0,0,11.508,9,16.643,16.643,0,0,0,6.375,1.855,4.672,4.672,0,0,0,4.009-1.526c.745-.832,1.585-1.592,2.373-2.388a2.484,2.484,0,0,0,.015-3.782Q28.779,68.059,26.683,65.981Z" transform="translate(-0.006 -42.858)"/><path class="a" d="M245.559,106.108l2.623-.448A11.773,11.773,0,0,0,238.224,96l-.37,2.637a9.1,9.1,0,0,1,7.705,7.471Z" transform="translate(-220.35 -88.937)"/><path class="a" d="M254.212,5.53A19.34,19.34,0,0,0,243.124,0l-.37,2.637a16.876,16.876,0,0,1,14.28,13.839l2.623-.448A19.482,19.482,0,0,0,254.212,5.53Z" transform="translate(-224.657)"/></g></g></svg>