<svg xmlns="http://www.w3.org/2000/svg" width="35" height="27.5" viewBox="0 0 35 27.5"><defs><style>.a{fill:#7e6bff;}</style></defs><g transform="translate(0 -54.82)"><g transform="translate(0 54.82)"><path class="a" d="M3.359,63.311q.664.469,4,2.788t5.117,3.57q.2.137.83.6t1.055.744q.42.284,1.016.636a5.888,5.888,0,0,0,1.123.528,3.09,3.09,0,0,0,.977.176h.039a3.093,3.093,0,0,0,.977-.176,5.894,5.894,0,0,0,1.123-.528q.6-.352,1.016-.636t1.055-.744q.635-.46.83-.6,1.8-1.252,9.14-6.359A9.287,9.287,0,0,0,34.043,60.9,5.173,5.173,0,0,0,35,57.951a3.154,3.154,0,0,0-3.125-3.131H3.125A2.787,2.787,0,0,0,.81,55.837,3.954,3.954,0,0,0,0,58.381a4.575,4.575,0,0,0,1.074,2.671A9.7,9.7,0,0,0,3.359,63.311Z" transform="translate(0 -54.82)"/><path class="a" d="M33.047,186.135q-6.406,4.332-9.726,6.733-1.113.819-1.807,1.278a11.155,11.155,0,0,1-1.846.937,5.624,5.624,0,0,1-2.148.478h-.04a5.626,5.626,0,0,1-2.148-.478,11.16,11.16,0,0,1-1.846-.937q-.693-.458-1.806-1.278-2.637-1.932-9.707-6.733A10.343,10.343,0,0,1,0,184.437v15.494a3,3,0,0,0,.918,2.205,3.01,3.01,0,0,0,2.207.917h28.75A3.133,3.133,0,0,0,35,199.931V184.437A10.768,10.768,0,0,1,33.047,186.135Z" transform="translate(0 -175.554)"/></g></g></svg>