<svg xmlns="http://www.w3.org/2000/svg" width="130" height="130" viewBox="0 0 130 130"><defs><style>.a{fill:#4dc200;}.b{fill:#fff;}</style></defs><g transform="translate(-1760.023 -639)"><circle class="a" cx="65" cy="65" r="65" transform="translate(1760.023 639)"/><g transform="translate(1801.431 680.408)"><g transform="translate(0 0)"><path class="b" d="M35.97,72.889a3.315,3.315,0,0,0-5.011,0c-1.171,1.162-2.343,2.323-3.495,3.5a.69.69,0,0,1-.965.177c-.758-.413-1.565-.748-2.294-1.2A36.341,36.341,0,0,1,15.446,67.4a20.756,20.756,0,0,1-3.14-5.03.721.721,0,0,1,.177-.925c1.171-1.132,2.313-2.294,3.465-3.455a3.327,3.327,0,0,0-.01-5.129c-.915-.925-1.831-1.831-2.746-2.756-.945-.945-1.88-1.9-2.835-2.835a3.336,3.336,0,0,0-5.011.01c-1.181,1.162-2.313,2.353-3.514,3.495A5.7,5.7,0,0,0,.04,54.619,16.307,16.307,0,0,0,1.3,61.638a42.649,42.649,0,0,0,7.57,12.61A46.844,46.844,0,0,0,24.384,86.385a22.437,22.437,0,0,0,8.594,2.5,6.3,6.3,0,0,0,5.4-2.057c1-1.122,2.136-2.146,3.2-3.219a3.349,3.349,0,0,0,.02-5.1Q38.8,75.69,35.97,72.889Z" transform="translate(-0.006 -41.716)"/><path class="b" d="M248.242,109.626l3.536-.6A15.872,15.872,0,0,0,238.352,96l-.5,3.555a12.267,12.267,0,0,1,10.388,10.071Z" transform="translate(-214.257 -86.479)"/><path class="b" d="M258.2,7.455A26.073,26.073,0,0,0,243.252,0l-.5,3.555a22.751,22.751,0,0,1,19.251,18.657l3.536-.6A26.264,26.264,0,0,0,258.2,7.455Z" transform="translate(-218.357)"/></g></g></g></svg>