<svg xmlns="http://www.w3.org/2000/svg" xmlns:xlink="http://www.w3.org/1999/xlink" width="50" height="50" viewBox="0 0 50 50"><defs><style>.a{fill:#fff;stroke:#707070;}.b{clip-path:url(#a);}</style><clipPath id="a"><circle class="a" cx="25" cy="25" r="25" transform="translate(1447 6022)"/></clipPath></defs><g class="b" transform="translate(-1447 -6022)"><path d="M33.47,17.732,22.335,28.083a2.307,2.307,0,0,0-.716,1.381l-.379,2.811a.349.349,0,0,1-.682.049L19.1,27.2a1.359,1.359,0,0,1,.594-1.528l13.493-8.311A.235.235,0,0,1,33.47,17.732ZM50,0V50H0V0ZM38.873,12.013,10.54,22.943a.814.814,0,0,0,.008,1.522l6.9,2.577,2.672,8.594a.814.814,0,0,0,1.291.389l3.848-3.137a1.147,1.147,0,0,1,1.4-.039l6.941,5.04a.814.814,0,0,0,1.275-.493l5.084-24.457A.814.814,0,0,0,38.873,12.013Z" transform="translate(1447 6022)"/></g></svg>