<svg xmlns="http://www.w3.org/2000/svg" xmlns:xlink="http://www.w3.org/1999/xlink" width="50" height="50" viewBox="0 0 50 50"><defs><style>.a{fill:#fff;stroke:#707070;}.b{clip-path:url(#a);}</style><clipPath id="a"><circle class="a" cx="25" cy="25" r="25" transform="translate(1306 6022)"/></clipPath></defs><g class="b" transform="translate(-1306 -6022)"><path d="M0,0V50H50V0ZM33,16.018a12.219,12.219,0,0,1,3.509,9.948l-1.41-.15a10.8,10.8,0,0,0-11.9-11.9l-.15-1.41A12.219,12.219,0,0,1,33,16.018ZM29.822,19.2a7.733,7.733,0,0,0-6.3-2.221l-.15-1.41A9.15,9.15,0,0,1,33.452,25.642l-1.41-.15A7.734,7.734,0,0,0,29.822,19.2Zm-2.209,2.209a4.613,4.613,0,0,0-3.756-1.324l-.15-1.41a6.027,6.027,0,0,1,6.64,6.64l-1.41-.15A4.612,4.612,0,0,0,27.612,21.405Zm8.64,16.613c-1.756,1.923-3.052,2.634-8.278.92s-10.828-7.066-10.828-7.066-5.352-5.6-7.066-10.828-1-6.522.92-8.278,3.6-.5,4.432.418,3.512,4.683,3.512,4.683.878,1.631-.251,2.676-2,1.25-2.276,2.109-.608,1.194.52,2.992q.106.168.217.338a20.241,20.241,0,0,0,5.884,5.884q.169.11.338.217c1.8,1.129,2.132.794,2.992.52s1.064-1.147,2.109-2.276,2.676-.251,2.676-.251,3.763,2.676,4.683,3.512S38.008,36.095,36.252,38.018Z" transform="translate(1306 6022)"/></g></svg>