<svg xmlns="http://www.w3.org/2000/svg" width="81.073" height="80.938" viewBox="0 0 81.073 80.938"><defs><style>.a{opacity:0.1;}.b{fill:none;stroke:#000;}</style></defs><g class="a" transform="translate(0.49 0.106)"><g transform="translate(0 0.394)"><g transform="translate(0 0)"><path class="b" d="M78.288,63.592,65.92,51.223a6.449,6.449,0,0,0-9.092.171L50.6,57.624c-.394-.217-.8-.444-1.23-.684A62.005,62.005,0,0,1,34.381,46.1,62.351,62.351,0,0,1,23.519,31.087c-.231-.417-.452-.819-.67-1.2l4.182-4.176,2.056-2.058a6.443,6.443,0,0,0,.166-9.093L16.885,2.188a6.442,6.442,0,0,0-9.092.171L4.307,5.865l.1.095A20.156,20.156,0,0,0,1.53,11.026,21,21,0,0,0,.252,16.165C-1.381,29.7,4.806,42.076,21.6,58.866,44.8,82.073,63.508,80.32,64.315,80.235a20.9,20.9,0,0,0,5.153-1.295,20.087,20.087,0,0,0,5.048-2.86l.076.068,3.531-3.458A6.454,6.454,0,0,0,78.288,63.592Z" transform="translate(0 -0.394)"/></g></g></g></svg>