<svg xmlns="http://www.w3.org/2000/svg" width="81.084" height="81.084" viewBox="0 0 81.084 81.084"><defs><style>.a{opacity:0.1;}.b{fill:none;stroke:#000;}</style></defs><g class="a" transform="translate(0.5 0.5)"><path class="b" d="M40.042,0A40.042,40.042,0,1,0,80.083,40.042,40.087,40.087,0,0,0,40.042,0Zm0,77.414A37.372,37.372,0,1,1,77.414,40.042,37.415,37.415,0,0,1,40.042,77.414Z"/><path class="b" d="M35.351,29.751V16.214a1.335,1.335,0,1,0-2.669,0V29.751a5.332,5.332,0,0,0-3.815,3.815H19.335a1.335,1.335,0,0,0,0,2.669h9.533a5.328,5.328,0,1,0,6.484-6.484Zm-1.335,7.819A2.669,2.669,0,1,1,36.686,34.9,2.672,2.672,0,0,1,34.017,37.569Z" transform="translate(6.025 4.98)"/><path class="b" d="M30.335,10.883a1.334,1.334,0,0,0,1.335-1.335V8.214a1.335,1.335,0,1,0-2.669,0V9.548A1.334,1.334,0,0,0,30.335,10.883Z" transform="translate(9.707 2.303)"/><path class="b" d="M30.335,49.879A1.334,1.334,0,0,0,29,51.214v1.335a1.335,1.335,0,0,0,2.669,0V51.214A1.334,1.334,0,0,0,30.335,49.879Z" transform="translate(9.707 16.696)"/><path class="b" d="M52.669,28.879H51.335a1.335,1.335,0,0,0,0,2.669h1.335a1.335,1.335,0,1,0,0-2.669Z" transform="translate(16.736 9.667)"/><path class="b" d="M9.669,28.879H8.335a1.335,1.335,0,1,0,0,2.669H9.669a1.335,1.335,0,1,0,0-2.669Z" transform="translate(2.343 9.667)"/><path class="b" d="M45.184,13.713l-.944.944a1.335,1.335,0,1,0,1.887,1.887l.944-.944a1.335,1.335,0,0,0-1.887-1.887Z" transform="translate(14.677 4.459)"/><path class="b" d="M14.779,44.119l-.944.944a1.335,1.335,0,1,0,1.887,1.887l.944-.944a1.335,1.335,0,0,0-1.887-1.887Z" transform="translate(4.5 14.637)"/><path class="b" d="M46.127,44.119a1.335,1.335,0,0,0-1.887,1.887l.944.944a1.335,1.335,0,0,0,1.887-1.887Z" transform="translate(14.677 14.637)"/><path class="b" d="M15.722,13.713A1.335,1.335,0,0,0,13.835,15.6l.944.944a1.335,1.335,0,0,0,1.887-1.887Z" transform="translate(4.5 4.459)"/></g></svg>