<svg xmlns="http://www.w3.org/2000/svg" xmlns:xlink="http://www.w3.org/1999/xlink" width="79.795" height="79.794" viewBox="0 0 79.795 79.794"><defs><style>.a{fill:none;}.b{opacity:0.2;clip-path:url(#a);}.c{fill:#272727;}</style><clipPath id="a"><rect class="a" width="79.794" height="79.794"/></clipPath></defs><g class="b" transform="translate(-0.001 0)"><g transform="translate(-1230 -1475)"><rect class="c" width="5" height="5" rx="2.5" transform="translate(1230 1475)"/></g><g transform="translate(-1215 -1475)"><rect class="c" width="5" height="5" rx="2.5" transform="translate(1230 1475)"/></g><g transform="translate(-1200 -1475)"><rect class="c" width="5" height="5" rx="2.5" transform="translate(1230 1475)"/></g><g transform="translate(-1185 -1475)"><rect class="c" width="5" height="5" rx="2.5" transform="translate(1230 1475)"/></g><g transform="translate(-1170 -1475)"><rect class="c" width="5" height="5" rx="2.5" transform="translate(1230 1475)"/></g><g transform="translate(-1155 -1475)"><rect class="c" width="5" height="5" rx="2.5" transform="translate(1230 1475)"/></g><g transform="translate(-1230 -1460)"><rect class="c" width="5" height="5" rx="2.5" transform="translate(1230 1475)"/></g><g transform="translate(-1215 -1460)"><rect class="c" width="5" height="5" rx="2.5" transform="translate(1230 1475)"/></g><g transform="translate(-1200 -1460)"><rect class="c" width="5" height="5" rx="2.5" transform="translate(1230 1475)"/></g><g transform="translate(-1185 -1460)"><rect class="c" width="5" height="5" rx="2.5" transform="translate(1230 1475)"/></g><g transform="translate(-1170 -1460)"><rect class="c" width="5" height="5" rx="2.5" transform="translate(1230 1475)"/></g><g transform="translate(-1155 -1460)"><rect class="c" width="5" height="5" rx="2.5" transform="translate(1230 1475)"/></g><g transform="translate(-1230 -1445)"><rect class="c" width="5" height="5" rx="2.5" transform="translate(1230 1475)"/></g><g transform="translate(-1215 -1445)"><rect class="c" width="5" height="5" rx="2.5" transform="translate(1230 1475)"/></g><g transform="translate(-1200 -1445)"><rect class="c" width="5" height="5" rx="2.5" transform="translate(1230 1475)"/></g><g transform="translate(-1185 -1445)"><rect class="c" width="5" height="5" rx="2.5" transform="translate(1230 1475)"/></g><g transform="translate(-1170 -1445)"><rect class="c" width="5" height="5" rx="2.5" transform="translate(1230 1475)"/></g><g transform="translate(-1155 -1445)"><rect class="c" width="5" height="5" rx="2.5" transform="translate(1230 1475)"/></g><g transform="translate(-1230 -1430)"><rect class="c" width="5" height="5" rx="2.5" transform="translate(1230 1475)"/></g><g transform="translate(-1215 -1430)"><rect class="c" width="5" height="5" rx="2.5" transform="translate(1230 1475)"/></g><g transform="translate(-1200 -1430)"><rect class="c" width="5" height="5" rx="2.5" transform="translate(1230 1475)"/></g><g transform="translate(-1185 -1430)"><rect class="c" width="5" height="5" rx="2.5" transform="translate(1230 1475)"/></g><g transform="translate(-1170 -1430)"><rect class="c" width="5" height="5" rx="2.5" transform="translate(1230 1475)"/></g><g transform="translate(-1155 -1430)"><rect class="c" width="5" height="5" rx="2.5" transform="translate(1230 1475)"/></g><g transform="translate(-1230 -1415)"><rect class="c" width="5" height="5" rx="2.5" transform="translate(1230 1475)"/></g><g transform="translate(-1215 -1415)"><rect class="c" width="5" height="5" rx="2.5" transform="translate(1230 1475)"/></g><g transform="translate(-1200 -1415)"><rect class="c" width="5" height="5" rx="2.5" transform="translate(1230 1475)"/></g><g transform="translate(-1185 -1415)"><rect class="c" width="5" height="5" rx="2.5" transform="translate(1230 1475)"/></g><g transform="translate(-1170 -1415)"><rect class="c" width="5" height="5" rx="2.5" transform="translate(1230 1475)"/></g><g transform="translate(-1155 -1415)"><rect class="c" width="5" height="5" rx="2.5" transform="translate(1230 1475)"/></g><g transform="translate(-1230 -1400)"><rect class="c" width="5" height="5" rx="2.5" transform="translate(1230 1475)"/></g><g transform="translate(-1215 -1400)"><rect class="c" width="5" height="5" rx="2.5" transform="translate(1230 1475)"/></g><g transform="translate(-1200 -1400)"><rect class="c" width="5" height="5" rx="2.5" transform="translate(1230 1475)"/></g><g transform="translate(-1185 -1400)"><rect class="c" width="5" height="5" rx="2.5" transform="translate(1230 1475)"/></g><g transform="translate(-1170 -1400)"><rect class="c" width="5" height="5" rx="2.5" transform="translate(1230 1475)"/></g><g transform="translate(-1155 -1400)"><rect class="c" width="5" height="5" rx="2.5" transform="translate(1230 1475)"/></g></g></svg>