<svg xmlns="http://www.w3.org/2000/svg" width="81.084" height="61.945" viewBox="0 0 81.084 61.945"><defs><style>.a{opacity:0.1;}.b{fill:none;stroke:#000;}</style></defs><g class="a" transform="translate(0.5 -57.25)"><g transform="translate(0 57.75)"><path class="b" d="M70.307,57.75H9.793A9.8,9.8,0,0,0,0,67.543V108.9a9.8,9.8,0,0,0,9.793,9.793h60.5a9.8,9.8,0,0,0,9.793-9.793V67.56A9.791,9.791,0,0,0,70.307,57.75ZM75.626,108.9a5.325,5.325,0,0,1-5.319,5.319H9.793A5.325,5.325,0,0,1,4.474,108.9V67.56a5.325,5.325,0,0,1,5.319-5.319h60.5A5.325,5.325,0,0,1,75.61,67.56V108.9Z" transform="translate(0 -57.75)"/><path class="b" d="M97.02,130.385l19.586-17.564a2.241,2.241,0,1,0-3-3.331L86.6,133.732l-5.269-4.706c-.017-.017-.033-.033-.033-.05a3.311,3.311,0,0,0-.365-.315L59.489,109.474a2.242,2.242,0,1,0-2.983,3.347l19.818,17.713L56.589,149.01a2.246,2.246,0,0,0-.1,3.165,2.289,2.289,0,0,0,1.64.713,2.242,2.242,0,0,0,1.524-.6L79.688,133.55l5.435,4.855a2.231,2.231,0,0,0,2.983-.017l5.584-5,19.917,18.923a2.243,2.243,0,0,0,3.165-.083,2.246,2.246,0,0,0-.083-3.165Z" transform="translate(-46.514 -100.426)"/></g></g></svg>