<svg xmlns="http://www.w3.org/2000/svg" width="49" height="45.412" viewBox="0 0 49 45.412"><g transform="translate(0 -17.25)"><g transform="translate(0 17.25)"><path d="M47.6,228.358a1.4,1.4,0,0,0-1.4,1.4v12.77a6.3,6.3,0,0,1-6.291,6.291H9.1a6.3,6.3,0,0,1-6.291-6.291V229.554a1.4,1.4,0,0,0-2.808,0v12.978a9.109,9.109,0,0,0,9.1,9.1H39.9a9.109,9.109,0,0,0,9.1-9.1v-12.77A1.4,1.4,0,0,0,47.6,228.358Z" transform="translate(0 -206.219)"/><path d="M138.714,28.574l6.531-6.531V50.527a1.4,1.4,0,1,0,2.808,0V22.044l6.531,6.531a1.413,1.413,0,0,0,.988.416,1.353,1.353,0,0,0,.988-.416,1.4,1.4,0,0,0,0-1.986l-8.922-8.922a1.421,1.421,0,0,0-.988-.416,1.36,1.36,0,0,0-.988.416l-8.922,8.922a1.4,1.4,0,0,0,1.976,1.986Z" transform="translate(-122.149 -17.25)"/></g></g></svg>