<svg xmlns="http://www.w3.org/2000/svg" xmlns:xlink="http://www.w3.org/1999/xlink" width="1943.955" height="83.689" viewBox="0 0 1943.955 83.689"><defs><style>.a,.c{fill:none;}.b{clip-path:url(#a);}.c{stroke:#272727;stroke-width:0.3px;opacity:0.5;}</style><clipPath id="a"><rect class="a" width="1943.955" height="83.69"/></clipPath></defs><g class="b"><g transform="translate(-133.1 -6516.624)"><path class="c" d="M1118.984,2073.953s55.224-25.39,120.473-25.39,74.6,25.39,140.522,25.39,60.441-25.39,123.152-25.39,127.691,25.39,127.691,25.39" transform="translate(-985.821 4468.211)"/><path class="c" d="M1118.984,2073.953s55.224-25.39,120.473-25.39,74.6,25.39,140.522,25.39,60.441-25.39,123.152-25.39,127.691,25.39,127.691,25.39" transform="translate(-967.821 4488.211)"/><path class="c" d="M1118.984,2073.953s55.224-25.39,120.473-25.39,74.6,25.39,140.522,25.39,60.441-25.39,123.152-25.39,127.691,25.39,127.691,25.39" transform="translate(-983.821 4508.211)"/></g><g transform="translate(378.9 -6516.624)"><path class="c" d="M1118.984,2073.953s55.224-25.39,120.473-25.39,74.6,25.39,140.522,25.39,60.441-25.39,123.152-25.39,127.691,25.39,127.691,25.39" transform="translate(-985.821 4468.211)"/><path class="c" d="M1118.984,2073.953s55.224-25.39,120.473-25.39,74.6,25.39,140.522,25.39,60.441-25.39,123.152-25.39,127.691,25.39,127.691,25.39" transform="translate(-967.821 4488.211)"/><path class="c" d="M1118.984,2073.953s55.224-25.39,120.473-25.39,74.6,25.39,140.522,25.39,60.441-25.39,123.152-25.39,127.691,25.39,127.691,25.39" transform="translate(-983.821 4508.211)"/></g><g transform="translate(890.9 -6516.624)"><path class="c" d="M1118.984,2073.953s55.224-25.39,120.473-25.39,74.6,25.39,140.522,25.39,60.441-25.39,123.152-25.39,127.691,25.39,127.691,25.39" transform="translate(-985.821 4468.211)"/><path class="c" d="M1118.984,2073.953s55.224-25.39,120.473-25.39,74.6,25.39,140.522,25.39,60.441-25.39,123.152-25.39,127.691,25.39,127.691,25.39" transform="translate(-967.821 4488.211)"/><path class="c" d="M1118.984,2073.953s55.224-25.39,120.473-25.39,74.6,25.39,140.522,25.39,60.441-25.39,123.152-25.39,127.691,25.39,127.691,25.39" transform="translate(-983.821 4508.211)"/></g><g transform="translate(1402.9 -6516.624)"><path class="c" d="M1118.984,2073.953s55.224-25.39,120.473-25.39,74.6,25.39,140.522,25.39,60.441-25.39,123.152-25.39,127.691,25.39,127.691,25.39" transform="translate(-985.821 4468.211)"/><path class="c" d="M1118.984,2073.953s55.224-25.39,120.473-25.39,74.6,25.39,140.522,25.39,60.441-25.39,123.152-25.39,127.691,25.39,127.691,25.39" transform="translate(-967.821 4488.211)"/><path class="c" d="M1118.984,2073.953s55.224-25.39,120.473-25.39,74.6,25.39,140.522,25.39,60.441-25.39,123.152-25.39,127.691,25.39,127.691,25.39" transform="translate(-983.821 4508.211)"/></g></g></svg>