<svg xmlns="http://www.w3.org/2000/svg" width="252" height="247.737" viewBox="0 0 252 247.737"><defs><style>.a{fill:#4bcdff;}</style></defs><path class="a" d="M-2218.277,247.737a33.4,33.4,0,0,1-25.305-11.614A8.993,8.993,0,0,0-2250.4,233a8.993,8.993,0,0,0-6.816,3.123,33.393,33.393,0,0,1-25.3,11.613,33.4,33.4,0,0,1-25.3-11.613,8.994,8.994,0,0,0-6.816-3.123,8.994,8.994,0,0,0-6.816,3.123,33.394,33.394,0,0,1-25.305,11.614,33.391,33.391,0,0,1-25.3-11.612,8.994,8.994,0,0,0-6.817-3.123,8.993,8.993,0,0,0-6.816,3.123,33.438,33.438,0,0,1-8.831,7.261,33.264,33.264,0,0,1-10.659,3.842,9.949,9.949,0,0,1-3.815-7.858V10a10.012,10.012,0,0,1,10-10h232a10.011,10.011,0,0,1,10,10V239.369a9.974,9.974,0,0,1-3.631,7.71,33.288,33.288,0,0,1-10.221-3.892,33.462,33.462,0,0,1-8.488-7.064,8.993,8.993,0,0,0-6.816-3.123,8.99,8.99,0,0,0-6.816,3.123A33.4,33.4,0,0,1-2218.277,247.737Z" transform="translate(2409)"/></svg>